<?xml version="1.0" standalone="no"?>
<!DOCTYPE svg PUBLIC "-//W3C//DTD SVG 20010904//EN"
 "http://www.w3.org/TR/2001/REC-SVG-20010904/DTD/svg10.dtd">
<svg version="1.0" xmlns="http://www.w3.org/2000/svg"
 width="735.000000pt" height="427.000000pt" viewBox="0 0 735.000000 427.000000"
 preserveAspectRatio="xMidYMid meet">

<g transform="translate(0.000000,427.000000) scale(0.100000,-0.100000)"
fill="#000000" stroke="none">
<path d="M1328 4084 c-82 -41 -148 -76 -148 -78 0 -4 300 -619 305 -624 6 -7
304 144 304 155 1 7 -60 135 -135 285 -169 341 -167 338 -174 337 -3 0 -71
-34 -152 -75z"/>
<path d="M2426 4029 c-7 -85 -12 -206 -22 -470 l-7 -186 74 -6 c41 -4 122 -9
182 -13 l107 -6 0 28 c0 16 7 146 15 289 8 143 15 296 15 340 l0 81 -72 2
c-40 1 -121 4 -180 8 l-106 6 -6 -73z"/>
<path d="M3170 4043 c0 -15 -7 -145 -15 -288 -8 -143 -15 -297 -15 -342 l0
-81 63 -6 c34 -3 115 -7 180 -10 l117 -4 1 57 c0 31 8 195 17 364 9 170 15
310 12 312 -4 2 -51 6 -105 10 -55 3 -135 8 -177 11 l-78 5 0 -28z"/>
<path d="M5706 4033 c-3 -16 -13 -75 -21 -133 -8 -58 -18 -120 -21 -137 -4
-18 -2 -33 2 -33 5 0 267 -39 583 -86 468 -70 575 -84 582 -73 4 8 4 18 0 22
-8 8 -169 34 -564 92 -117 18 -136 26 -124 58 4 11 75 3 349 -39 247 -37 345
-48 350 -40 20 30 28 28 -497 106 -207 31 -197 28 -189 53 3 12 8 23 9 25 1 1
47 -4 101 -13 249 -38 569 -85 581 -85 7 0 13 9 13 20 0 11 -2 20 -5 20 -2 0
-134 20 -292 44 -158 24 -312 47 -340 51 -47 6 -53 9 -53 31 0 19 5 24 24 24
14 0 171 -22 350 -50 179 -27 327 -50 328 -50 7 0 7 49 0 53 -4 3 -36 8 -72
11 -36 4 -117 15 -180 25 -63 11 -198 31 -300 46 -102 15 -268 40 -370 56
-233 37 -237 37 -244 2z m54 -13 c0 -5 -4 -10 -10 -10 -5 0 -10 5 -10 10 0 6
5 10 10 10 6 0 10 -4 10 -10z m80 -10 c0 -5 -7 -10 -15 -10 -8 0 -15 5 -15 10
0 6 7 10 15 10 8 0 15 -4 15 -10z m75 -10 c3 -5 -1 -10 -9 -10 -9 0 -16 5 -16
10 0 6 4 10 9 10 6 0 13 -4 16 -10z m-129 -27 c-10 -10 -19 5 -10 18 6 11 8
11 12 0 2 -7 1 -15 -2 -18z m204 17 c0 -5 -4 -10 -10 -10 -5 0 -10 5 -10 10 0
6 5 10 10 10 6 0 10 -4 10 -10z m80 -15 c0 -8 -4 -15 -10 -15 -5 0 -10 7 -10
15 0 8 5 15 10 15 6 0 10 -7 10 -15z m-200 -5 c0 -5 -4 -10 -10 -10 -5 0 -10
5 -10 10 0 6 5 10 10 10 6 0 10 -4 10 -10z m277 -16 c-9 -9 -28 6 -21 18 4 6
10 6 17 -1 6 -6 8 -13 4 -17z m-397 1 c0 -8 -4 -15 -10 -15 -5 0 -10 7 -10 15
0 8 5 15 10 15 6 0 10 -7 10 -15z m200 5 c0 -5 -4 -10 -10 -10 -5 0 -10 5 -10
10 0 6 5 10 10 10 6 0 10 -4 10 -10z m-126 -21 c-3 -5 -10 -7 -15 -3 -5 3 -7
10 -3 15 3 5 10 7 15 3 5 -3 7 -10 3 -15z m206 11 c0 -5 -7 -10 -16 -10 -8 0
-12 5 -9 10 3 6 10 10 16 10 5 0 9 -4 9 -10z m-129 -23 c-13 -13 -26 -3 -16
12 3 6 11 8 17 5 6 -4 6 -10 -1 -17z m200 10 c-1 -12 -15 -9 -19 4 -3 6 1 10
8 8 6 -3 11 -8 11 -12z m-321 -23 c0 -8 -4 -12 -10 -9 -5 3 -10 10 -10 16 0 5
5 9 10 9 6 0 10 -7 10 -16z m200 6 c0 -5 -4 -10 -10 -10 -5 0 -10 5 -10 10 0
6 5 10 10 10 6 0 10 -4 10 -10z m-120 -15 c0 -8 -4 -15 -10 -15 -5 0 -10 7
-10 15 0 8 5 15 10 15 6 0 10 -7 10 -15z m200 5 c0 -5 -4 -10 -10 -10 -5 0
-10 5 -10 10 0 6 5 10 10 10 6 0 10 -4 10 -10z m-120 -21 c0 -5 -4 -9 -10 -9
-5 0 -10 7 -10 16 0 8 5 12 10 9 6 -3 10 -10 10 -16z m200 11 c0 -5 -7 -10
-16 -10 -8 0 -12 5 -9 10 3 6 10 10 16 10 5 0 9 -4 9 -10z m-400 -10 c0 -5 -4
-10 -10 -10 -5 0 -10 5 -10 10 0 6 5 10 10 10 6 0 10 -4 10 -10z m80 -10 c0
-5 -7 -10 -16 -10 -8 0 -12 5 -9 10 3 6 10 10 16 10 5 0 9 -4 9 -10z m200 0
c0 -5 -7 -10 -15 -10 -8 0 -15 5 -15 10 0 6 7 10 15 10 8 0 15 -4 15 -10z
m-129 -13 c-1 -12 -15 -9 -19 4 -3 6 1 10 8 8 6 -3 11 -8 11 -12z m204 3 c3
-5 -1 -10 -9 -10 -9 0 -16 5 -16 10 0 6 4 10 9 10 6 0 13 -4 16 -10z m-125
-15 c0 -8 -4 -15 -10 -15 -5 0 -10 7 -10 15 0 8 5 15 10 15 6 0 10 -7 10 -15z
m-200 -5 c0 -5 -4 -10 -10 -10 -5 0 -10 5 -10 10 0 6 5 10 10 10 6 0 10 -4 10
-10z m80 -10 c0 -5 -4 -10 -10 -10 -5 0 -10 5 -10 10 0 6 5 10 10 10 6 0 10
-4 10 -10z m200 0 c0 -5 -4 -10 -10 -10 -5 0 -10 5 -10 10 0 6 5 10 10 10 6 0
10 -4 10 -10z m-320 -21 c0 -5 -4 -9 -10 -9 -5 0 -10 7 -10 16 0 8 5 12 10 9
6 -3 10 -10 10 -16z m200 11 c0 -5 -4 -10 -10 -10 -5 0 -10 5 -10 10 0 6 5 10
10 10 6 0 10 -4 10 -10z m200 0 c0 -5 -4 -10 -10 -10 -5 0 -10 5 -10 10 0 6 5
10 10 10 6 0 10 -4 10 -10z m-126 -21 c-3 -5 -10 -7 -15 -3 -5 3 -7 10 -3 15
3 5 10 7 15 3 5 -3 7 -10 3 -15z m-194 1 c0 -5 -7 -10 -15 -10 -8 0 -15 5 -15
10 0 6 7 10 15 10 8 0 15 -4 15 -10z m271 -13 c-13 -13 -26 -3 -16 12 3 6 11
8 17 5 6 -4 6 -10 -1 -17z m-191 3 c0 -5 -7 -10 -15 -10 -8 0 -15 5 -15 10 0
6 7 10 15 10 8 0 15 -4 15 -10z m-134 -27 c-10 -10 -19 5 -10 18 6 11 8 11 12
0 2 -7 1 -15 -2 -18z m204 17 c0 -5 -4 -10 -10 -10 -5 0 -10 5 -10 10 0 6 5
10 10 10 6 0 10 -4 10 -10z m-124 -27 c-10 -10 -19 5 -10 18 6 11 8 11 12 0 2
-7 1 -15 -2 -18z m204 12 c0 -8 -4 -15 -10 -15 -5 0 -10 7 -10 15 0 8 5 15 10
15 6 0 10 -7 10 -15z m80 -10 c0 -8 -4 -15 -10 -15 -5 0 -10 7 -10 15 0 8 5
15 10 15 6 0 10 -7 10 -15z m-400 -5 c0 -5 -4 -10 -10 -10 -5 0 -10 5 -10 10
0 6 5 10 10 10 6 0 10 -4 10 -10z m200 0 c0 -5 -4 -10 -10 -10 -5 0 -10 5 -10
10 0 6 5 10 10 10 6 0 10 -4 10 -10z m-123 -26 c-9 -9 -28 6 -21 18 4 6 10 6
17 -1 6 -6 8 -13 4 -17z m203 16 c0 -5 -7 -10 -15 -10 -8 0 -15 5 -15 10 0 6
7 10 15 10 8 0 15 -4 15 -10z m-126 -21 c-3 -5 -10 -7 -15 -3 -5 3 -7 10 -3
15 3 5 10 7 15 3 5 -3 7 -10 3 -15z m201 11 c3 -5 -1 -10 -9 -10 -9 0 -16 5
-16 10 0 6 4 10 9 10 6 0 13 -4 16 -10z m-125 -20 c0 -5 -4 -10 -10 -10 -5 0
-10 5 -10 10 0 6 5 10 10 10 6 0 10 -4 10 -10z m80 -10 c0 -5 -4 -10 -10 -10
-5 0 -10 5 -10 10 0 6 5 10 10 10 6 0 10 -4 10 -10z m80 -10 c0 -5 -4 -10 -10
-10 -5 0 -10 5 -10 10 0 6 5 10 10 10 6 0 10 -4 10 -10z"/>
<path d="M693 3772 c-84 -42 -153 -80 -153 -84 0 -6 291 -596 306 -620 4 -6
157 65 291 135 l32 17 -157 315 c-86 173 -159 315 -162 314 -3 0 -74 -35 -157
-77z"/>
<path d="M4232 3712 c-12 -38 -22 -73 -22 -78 0 -6 33 -21 73 -33 39 -13 74
-24 75 -25 4 -1 52 142 52 153 0 7 -127 51 -146 51 -6 0 -20 -31 -32 -68z"/>
<path d="M4474 3627 c-14 -43 -24 -80 -23 -81 6 -5 132 -46 140 -46 4 0 13 16
19 35 6 19 16 35 22 35 6 0 155 -47 330 -105 176 -58 323 -105 327 -105 7 0
33 71 28 76 -1 1 -108 37 -237 79 -129 42 -313 103 -407 134 l-173 57 -26 -79z"/>
<path d="M5648 3662 c-7 -25 -25 -21 282 -67 554 -82 837 -125 863 -129 23 -5
27 -2 27 17 0 22 -7 24 -177 50 -473 70 -912 136 -949 142 -36 6 -42 5 -46
-13z"/>
<path d="M5636 3565 c-8 -21 -8 -21 184 -49 91 -14 284 -43 430 -65 528 -81
543 -82 552 -69 17 28 17 28 -147 52 -136 20 -670 101 -830 126 -157 24 -181
25 -189 5z"/>
<path d="M4152 3469 c-13 -39 -20 -75 -15 -79 10 -10 143 -53 147 -49 13 15
46 142 40 149 -8 7 -131 50 -144 50 -3 0 -16 -32 -28 -71z"/>
<path d="M4590 3455 c-7 -20 -10 -38 -8 -39 8 -6 660 -217 662 -214 2 2 8 18
14 36 9 25 8 34 -1 37 -37 12 -634 209 -643 212 -7 2 -17 -12 -24 -32z"/>
<path d="M5620 3471 c0 -13 9 -21 28 -25 43 -8 143 -25 192 -31 53 -7 240 -35
510 -76 328 -50 394 -60 414 -62 11 -1 22 7 26 19 8 20 2 22 -138 42 -81 12
-342 51 -580 87 -238 36 -437 65 -442 65 -6 0 -10 -9 -10 -19z"/>
<path d="M4415 3448 c-26 -70 -44 -132 -40 -136 5 -5 43 -18 479 -161 187 -61
340 -110 341 -109 1 2 5 19 9 39 l6 35 -331 108 -331 108 7 27 c13 49 11 53
-40 71 -92 31 -95 32 -100 18z"/>
<path d="M4086 3278 c-3 -13 -6 -28 -6 -35 0 -7 211 -82 523 -184 287 -94 526
-172 531 -173 8 -1 31 63 24 69 -6 6 -1043 345 -1054 345 -6 0 -14 -10 -18
-22z"/>
<path d="M4032 3110 c-9 -25 -8 -31 6 -39 9 -4 179 -61 377 -125 198 -65 429
-140 513 -168 90 -30 157 -47 162 -42 5 5 12 21 15 35 7 27 6 27 -177 87 -101
33 -334 110 -519 171 -184 61 -343 111 -351 111 -9 0 -21 -13 -26 -30z"/>
<path d="M2790 2826 c-633 -183 -650 -188 -650 -200 0 -10 120 -429 124 -433
1 -1 54 13 116 31 63 19 309 89 545 156 237 67 433 125 436 128 4 4 -21 105
-55 224 -45 162 -65 218 -76 217 -8 0 -206 -56 -440 -123z"/>
<path d="M842 2740 c-354 -54 -506 -151 -746 -475 l-96 -130 0 -268 c0 -261 1
-271 26 -345 86 -261 266 -521 415 -603 42 -23 44 -26 47 -76 4 -61 -24 -150
-70 -225 -18 -29 -81 -111 -141 -183 -59 -71 -125 -155 -145 -185 -33 -50 -90
-172 -107 -227 l-6 -23 741 0 c590 0 740 3 734 13 -4 6 -25 32 -45 57 -21 25
-43 59 -49 75 -17 42 -15 149 4 221 9 34 16 80 16 103 0 23 3 41 8 41 4 0 56
-10 116 -22 95 -19 119 -20 184 -11 101 15 124 38 130 126 3 50 -1 75 -17 111
l-20 47 44 31 c28 20 45 40 45 52 0 11 -22 40 -52 66 -28 25 -49 51 -45 56 3
6 32 16 64 23 113 26 144 56 118 117 -33 80 -13 117 68 128 69 8 87 21 87 59
0 41 -26 84 -140 237 -128 172 -140 203 -93 246 26 24 26 26 16 83 -6 32 -37
113 -68 181 -31 68 -61 143 -68 167 -11 41 -9 48 16 93 51 90 27 166 -81 261
-199 173 -510 236 -890 179z"/>
<path d="M6251 2620 c-63 -14 -129 -48 -153 -81 -17 -23 -30 -29 -59 -29 -109
0 -298 -76 -420 -168 -127 -96 -179 -191 -186 -336 -3 -50 -7 -111 -10 -136
-3 -31 0 -51 11 -65 14 -19 15 -17 16 30 0 49 20 95 41 95 6 0 3 -10 -5 -22
-9 -12 -16 -32 -15 -43 0 -16 4 -13 14 11 14 30 45 64 45 48 0 -5 -14 -45 -31
-89 -36 -91 -41 -167 -15 -229 9 -21 16 -45 16 -52 0 -24 -38 -15 -75 17 -19
17 -35 26 -35 20 0 -16 59 -79 81 -86 26 -9 25 -17 -18 -103 -25 -51 -60 -99
-110 -151 -40 -42 -73 -80 -73 -84 0 -25 25 -47 70 -62 50 -17 71 -37 85 -83
9 -30 -11 -79 -36 -85 -28 -8 -23 -42 11 -70 16 -14 35 -27 41 -29 8 -3 7 -13
-5 -35 -23 -45 -21 -52 18 -68 56 -24 66 -47 66 -152 0 -110 11 -127 86 -139
62 -9 211 1 309 21 100 21 118 16 140 -37 18 -45 41 -199 51 -340 l6 -88 454
0 454 0 -24 48 c-13 26 -65 116 -115 201 -91 155 -148 277 -158 335 -4 25 0
33 19 41 17 8 24 19 26 48 3 29 7 37 20 35 17 -3 36 -61 29 -90 -3 -10 -1 -18
4 -18 5 0 12 18 15 40 7 45 11 47 31 23 12 -16 13 -12 8 33 -10 83 18 134 139
251 109 105 163 185 224 333 70 172 98 384 73 561 -16 110 -26 142 -70 214
-20 33 -41 75 -47 93 -15 43 -72 135 -106 172 -17 19 -37 30 -54 30 -17 0 -45
14 -73 38 -117 97 -274 178 -411 212 -99 24 -236 33 -299 20z m848 -384 c-2
-2 -13 8 -23 22 l-19 27 24 -22 c12 -12 21 -24 18 -27z m-1615 -225 c-16 -55
-41 -62 -30 -8 6 28 35 72 43 64 1 -2 -4 -27 -13 -56z m1252 -1326 c3 -14 3
-33 -1 -42 -7 -17 -8 -16 -15 2 -12 28 -12 65 0 65 5 0 12 -11 16 -25z"/>
</g>
</svg>
