<?xml version="1.0" standalone="no"?>
<!DOCTYPE svg PUBLIC "-//W3C//DTD SVG 20010904//EN"
 "http://www.w3.org/TR/2001/REC-SVG-20010904/DTD/svg10.dtd">
<svg version="1.0" xmlns="http://www.w3.org/2000/svg"
 width="736.000000pt" height="1104.000000pt" viewBox="0 0 736.000000 1104.000000"
 preserveAspectRatio="xMidYMid meet">

<g transform="translate(0.000000,1104.000000) scale(0.100000,-0.100000)"
fill="#000000" stroke="none">
<path d="M817 9841 c-32 -11 -75 -30 -95 -44 -48 -32 -127 -111 -164 -165 -58
-84 -102 -242 -123 -437 -29 -282 -71 -469 -130 -587 -40 -80 -69 -113 -135
-154 -33 -20 -60 -40 -60 -44 0 -10 72 -30 107 -30 17 0 44 5 62 11 18 6 35 9
38 5 3 -3 0 -32 -7 -63 -56 -262 -62 -366 -31 -498 11 -44 27 -97 36 -118 l16
-38 49 36 c52 38 208 115 233 115 22 0 190 68 204 83 20 21 160 309 185 380
12 37 26 67 30 67 3 0 16 -12 27 -27 12 -14 23 -24 25 -22 2 2 6 35 10 73 6
63 5 68 -11 61 -10 -4 -40 -9 -68 -12 -66 -5 -117 24 -167 97 -60 85 -77 183
-44 247 67 131 237 135 314 8 19 -33 33 -45 47 -43 18 3 20 10 20 68 -1 36 -4
72 -7 80 -10 21 96 95 110 77 5 -7 15 -47 22 -89 14 -88 33 -124 86 -164 34
-26 45 -29 113 -29 59 0 86 5 117 22 53 28 91 73 105 126 32 119 52 145 87
113 11 -9 23 -32 26 -51 8 -41 99 -161 129 -169 45 -12 112 -6 144 14 44 27
73 87 73 152 0 74 31 159 64 176 52 26 83 95 72 157 -7 38 -59 105 -81 105
-21 0 -30 22 -13 34 23 17 48 72 48 106 0 103 -104 202 -280 265 -59 21 -99
28 -190 32 -63 2 -128 9 -145 14 -64 19 -211 27 -315 18 l-106 -10 -69 32
c-64 29 -81 33 -185 36 -93 2 -126 -1 -173 -16z m288 -107 c-90 -68 -148 -139
-178 -220 -8 -21 -18 -48 -23 -59 -4 -11 -6 -30 -5 -42 3 -32 -23 -29 -37 2
-7 14 -12 41 -12 60 0 35 27 126 39 135 4 3 10 13 14 22 8 22 115 106 141 111
12 2 35 5 51 5 29 1 29 1 10 -14z m770 -254 c59 -27 138 -103 180 -175 35 -59
82 -192 71 -202 -3 -4 -42 -8 -87 -10 -63 -3 -96 -10 -146 -33 -81 -37 -122
-38 -209 -3 -65 26 -78 28 -231 28 -161 0 -162 0 -190 -26 -15 -15 -40 -34
-55 -44 -23 -14 -28 -15 -28 -3 0 8 8 22 18 30 16 15 190 118 198 118 2 0 4
-7 4 -15 0 -20 18 -19 79 6 55 23 64 42 29 60 -13 6 -24 13 -26 14 -2 2 15 27
38 56 23 30 60 93 83 141 35 72 46 88 67 90 47 6 162 -13 205 -32z m246 -430
c15 -8 19 -22 19 -61 0 -41 3 -50 15 -45 12 4 15 -3 15 -35 0 -90 -58 -149
-145 -149 -43 0 -52 4 -85 39 -60 63 -79 170 -36 210 44 42 171 65 217 41z
m-483 -25 c52 -21 62 -38 62 -107 -1 -99 -50 -167 -138 -186 -132 -30 -222 61
-222 224 0 55 9 69 57 84 43 14 192 5 241 -15z"/>
<path d="M1945 9186 c-27 -19 -12 -42 32 -50 21 -3 48 -9 61 -12 17 -5 22 -2
22 13 0 49 -72 80 -115 49z"/>
<path d="M1959 8986 c-36 -17 -38 -69 -4 -92 47 -31 98 10 79 64 -11 32 -44
44 -75 28z"/>
<path d="M1477 8972 c-50 -55 30 -125 82 -73 33 33 5 91 -44 91 -12 0 -29 -8
-38 -18z"/>
<path d="M3000 9007 c-115 -65 -535 -307 -680 -392 -58 -34 -128 -74 -157 -89
-43 -24 -52 -34 -58 -64 -17 -90 -82 -177 -166 -222 -56 -30 -74 -34 -162 -38
l-99 -5 5 -40 c7 -49 18 -57 87 -57 60 0 31 -15 540 280 307 178 556 322 652
376 32 18 60 29 62 25 3 -4 10 -82 16 -172 5 -90 14 -216 20 -279 5 -63 12
-160 15 -215 7 -119 30 -458 46 -677 l12 -157 31 16 c17 8 64 36 104 61 l74
45 -6 61 c-3 34 -11 133 -16 221 -6 88 -17 252 -25 365 -8 113 -21 309 -30
435 -37 552 -33 528 -79 559 -43 28 -84 20 -186 -37z"/>
<path d="M1585 8560 c3 -5 24 -15 45 -21 40 -12 71 -35 88 -64 10 -19 38 -11
52 15 9 16 -1 22 -83 49 -100 34 -111 36 -102 21z"/>
<path d="M6020 7811 c-41 -20 -136 -66 -210 -100 -74 -35 -175 -83 -225 -106
-112 -53 -599 -283 -720 -340 -49 -24 -173 -82 -275 -130 -102 -48 -209 -98
-237 -113 l-53 -25 0 -68 0 -68 53 -24 c28 -14 81 -36 117 -51 36 -14 160 -66
275 -114 l210 -89 -1 -124 c0 -68 -2 -149 -3 -180 -1 -31 3 -76 9 -100 12 -44
54 -119 68 -119 4 0 17 16 30 35 21 33 21 37 7 65 -28 53 -11 110 44 149 l29
21 1 131 c2 200 18 249 107 320 135 109 417 246 638 310 77 22 79 22 92 4 8
-10 11 -22 7 -25 -5 -4 -51 -19 -103 -34 -235 -68 -545 -227 -633 -326 -50
-56 -53 -68 -63 -265 l-7 -123 31 -16 c33 -17 62 -61 62 -93 0 -10 -7 -31 -15
-47 -20 -37 -19 -40 9 -85 22 -34 54 -127 70 -202 5 -22 17 -29 93 -53 124
-38 144 -43 273 -68 103 -20 146 -22 410 -22 262 0 309 2 415 22 159 29 255
55 370 99 195 76 334 190 364 298 6 23 11 123 11 233 l0 193 45 20 45 20 -2
325 -3 325 -425 200 c-234 110 -452 213 -485 229 -219 105 -319 150 -334 149
-9 0 -50 -17 -91 -38z"/>
<path d="M77 7322 l-77 -46 0 -113 c0 -62 2 -113 5 -113 20 0 115 73 115 87 0
10 11 63 25 118 27 112 28 115 18 114 -5 0 -43 -21 -86 -47z"/>
<path d="M3329 6682 c-24 -21 -65 -51 -92 -66 -50 -29 -67 -51 -67 -85 0 -11
-9 -22 -20 -26 -10 -3 -61 -31 -112 -62 -51 -30 -100 -58 -108 -61 -8 -3 -37
-20 -65 -37 -49 -31 -190 -112 -270 -154 l-40 -21 -15 32 c-18 37 -32 44 -52
25 -8 -8 -45 -31 -83 -51 -39 -21 -83 -45 -100 -55 -91 -54 -314 -181 -319
-181 -3 0 -28 -16 -55 -35 -26 -19 -51 -35 -54 -35 -4 0 -45 -23 -91 -50 -47
-28 -93 -53 -103 -57 -10 -3 -43 -23 -73 -43 -30 -20 -84 -51 -120 -69 -36
-19 -71 -38 -78 -44 -21 -16 -75 -47 -104 -58 -16 -6 -28 -15 -28 -20 0 -5 -5
-9 -10 -9 -6 0 -43 -20 -83 -43 -39 -24 -92 -55 -117 -68 -25 -13 -52 -29 -60
-35 -8 -6 -50 -30 -92 -52 -42 -22 -114 -63 -160 -90 -181 -108 -233 -137
-236 -134 -9 7 -41 -54 -47 -88 -4 -26 -16 -45 -38 -61 -40 -30 -170 -106
-197 -114 -11 -3 -20 -10 -20 -15 0 -5 -14 -11 -30 -15 -17 -4 -30 -10 -30
-13 0 -4 -36 -27 -80 -52 l-80 -45 0 -55 0 -54 39 38 c41 41 51 36 51 -24 0
-48 -9 -60 -45 -60 -32 0 -34 -2 -40 -44 -4 -25 -5 -49 -4 -55 2 -6 69 27 149
73 182 106 275 156 291 156 7 0 55 25 106 55 52 30 98 55 103 55 4 0 10 4 12
8 2 4 59 40 128 78 69 39 163 93 210 120 78 46 108 63 150 85 8 4 88 51 177
103 89 53 163 96 166 96 2 0 72 40 155 89 83 48 165 94 182 101 16 7 30 16 30
21 0 5 4 9 10 9 5 0 56 28 112 61 57 34 123 73 148 87 25 14 59 33 75 42 17 9
57 32 90 50 33 18 67 39 75 45 8 7 46 29 83 49 126 68 142 78 179 112 21 18
61 45 90 60 54 27 146 79 208 119 88 56 254 144 261 139 21 -12 -30 -68 -96
-106 -38 -22 -122 -71 -185 -108 -161 -94 -239 -137 -290 -160 -24 -11 -154
-82 -165 -90 -5 -5 -26 -17 -45 -28 -90 -50 -381 -219 -430 -248 -30 -19 -68
-41 -85 -50 -16 -8 -46 -25 -67 -37 -20 -12 -65 -38 -100 -58 -34 -20 -150
-87 -255 -148 -106 -61 -194 -111 -196 -111 -2 0 -52 -29 -112 -65 -59 -36
-114 -65 -121 -65 -7 0 -14 -4 -16 -9 -1 -4 -37 -27 -78 -50 -41 -23 -91 -52
-111 -64 -20 -12 -105 -62 -190 -111 -85 -49 -178 -105 -208 -125 -30 -20
-140 -86 -245 -146 l-191 -111 -3 -336 -2 -336 57 -33 c32 -17 74 -41 93 -52
19 -10 145 -83 280 -162 135 -78 306 -177 380 -220 74 -43 194 -112 265 -153
72 -42 159 -92 195 -112 102 -57 398 -229 477 -276 40 -24 75 -44 77 -44 2 0
51 -28 108 -62 101 -61 105 -63 173 -62 69 0 72 1 205 79 74 43 191 110 260
150 431 248 702 405 766 442 27 17 70 41 95 55 24 14 148 85 274 158 231 133
464 268 520 300 17 9 75 43 130 75 171 99 349 202 488 281 72 42 137 80 142
84 6 4 35 21 65 37 30 17 95 53 143 82 49 28 92 51 96 51 4 0 68 -35 142 -78
386 -226 419 -242 406 -208 -3 8 -11 43 -17 77 -11 62 -9 108 11 225 l11 62
44 -25 c24 -14 46 -28 49 -32 2 -5 -2 -46 -10 -92 -8 -46 -15 -105 -15 -130 0
-67 20 -156 39 -172 9 -7 100 -62 203 -120 136 -78 195 -107 220 -107 25 0
100 38 297 150 144 82 359 204 477 271 l214 121 0 69 c0 69 0 70 -22 58 -24
-12 -419 -236 -758 -430 -114 -65 -209 -114 -214 -109 -4 5 -7 55 -4 113 3 93
6 108 30 145 18 26 52 55 95 81 l68 39 51 -29 c28 -16 63 -29 77 -29 22 0 144
65 402 215 50 29 130 74 178 100 49 26 91 53 93 60 3 7 4 38 2 69 l-3 56 -195
-111 c-107 -61 -217 -123 -245 -138 -27 -16 -90 -51 -139 -80 -49 -28 -93 -51
-97 -51 -5 0 -9 51 -9 113 0 118 15 174 56 208 16 13 431 251 592 339 38 22
42 27 42 62 l0 38 -37 -22 c-21 -13 -56 -32 -78 -43 -22 -11 -42 -22 -45 -25
-3 -3 -23 -15 -45 -27 -22 -11 -56 -30 -75 -42 -19 -11 -53 -30 -75 -42 -22
-12 -42 -24 -45 -28 -3 -3 -25 -16 -50 -29 -25 -13 -67 -36 -95 -52 -27 -16
-60 -33 -72 -39 -25 -11 -47 -32 -80 -74 l-21 -28 -41 18 c-23 10 -41 21 -41
25 0 5 -5 8 -10 8 -6 0 -38 17 -73 37 -34 21 -79 47 -100 58 -21 11 -46 27
-55 36 -10 8 -23 14 -30 11 -6 -2 -12 2 -12 10 -1 33 -21 -26 -32 -93 -14 -88
-12 -191 6 -260 7 -27 9 -52 4 -55 -4 -3 -34 12 -66 33 -49 33 -59 44 -69 83
-20 77 -15 220 12 346 7 29 4 33 -37 53 -23 13 -60 32 -80 44 -21 12 -66 37
-100 56 -35 19 -79 44 -98 57 -19 13 -38 24 -42 24 -7 0 -108 60 -118 70 -3 3
-27 16 -55 30 -27 14 -63 34 -80 45 -43 29 -106 64 -137 78 -16 6 -28 15 -28
18 0 17 -61 19 -109 3 -72 -23 -160 -15 -235 22 -31 15 -62 36 -67 45 -5 10
-11 52 -13 94 -4 84 -6 86 -86 127 -25 13 -47 25 -50 28 -3 3 -22 13 -42 22
l-37 17 -12 -42 c-6 -23 -12 -90 -13 -149 -1 -86 -4 -108 -15 -108 -17 0 -103
49 -113 64 -16 23 -8 144 18 287 5 32 3 38 -16 44 -26 8 -124 67 -128 78 -2 4
-7 7 -12 7 -4 0 -36 16 -70 35 -34 19 -66 33 -70 30 -20 -12 -40 -104 -40
-182 0 -80 -1 -83 -25 -89 -27 -7 -15 -13 -280 141 -481 278 -468 271 -541
261 -48 -6 -55 1 -24 29 39 35 42 79 25 358 -9 144 -20 265 -24 270 -4 4 -27
-10 -52 -31z m-147 -257 c3 -14 2 -28 -3 -31 -5 -2 -3 -16 3 -29 11 -25 -2
-55 -24 -55 -5 0 -22 -10 -37 -21 -16 -12 -34 -19 -39 -15 -6 3 -9 33 -8 66 1
59 2 61 41 85 51 31 62 31 67 0z m-136 -70 c0 -6 4 -18 9 -28 4 -11 3 -23 -4
-30 -6 -6 -11 -17 -11 -24 0 -15 -39 -57 -56 -59 -43 -7 -52 72 -14 124 16 22
30 30 49 29 14 -2 26 -7 27 -12z m-181 -136 c15 -23 -53 -69 -261 -180 -38
-20 -110 -61 -160 -89 -49 -29 -107 -63 -129 -75 -22 -13 -80 -46 -130 -75
-176 -103 -354 -205 -620 -358 -386 -221 -402 -231 -420 -259 -13 -19 -22 -23
-40 -19 -24 6 -81 -20 -175 -79 -22 -14 -44 -25 -49 -25 -5 0 -16 -6 -23 -14
-8 -7 -45 -30 -84 -51 -38 -21 -81 -46 -96 -57 -14 -10 -29 -18 -32 -18 -3 0
-31 -16 -63 -35 -55 -33 -90 -45 -79 -26 3 4 65 43 138 86 73 43 158 93 188
111 30 17 98 57 152 88 53 30 106 68 117 82 12 15 32 28 46 30 14 1 42 12 63
24 76 46 321 189 462 270 80 45 209 120 288 166 78 46 144 84 146 84 2 0 33
17 67 38 35 22 84 50 109 64 25 14 88 50 140 80 52 30 106 61 120 69 14 8 33
20 42 28 30 24 252 151 265 151 6 0 15 -5 18 -11z m-2450 -1435 c0 -44 -2 -49
-23 -49 -13 0 -31 -11 -41 -24 -29 -38 -50 -22 -48 36 2 48 2 48 39 51 26 2
37 8 41 24 11 39 32 13 32 -38z m-197 -84 c32 0 27 -19 -17 -69 -54 -59 -73
-42 -55 49 6 26 10 31 28 26 12 -3 31 -6 44 -6z"/>
<path d="M3128 6393 c-21 -23 -33 -69 -20 -77 20 -12 54 47 43 77 -6 18 -7 18
-23 0z"/>
<path d="M2990 6288 c0 -19 2 -20 10 -8 13 19 13 30 0 30 -5 0 -10 -10 -10
-22z"/>
<path d="M4949 6085 c-3 -84 1 -299 5 -303 3 -2 9 13 14 34 5 22 17 70 26 107
15 62 15 71 1 100 -8 18 -17 44 -20 57 -8 44 -25 47 -26 5z"/>
<path d="M7253 6058 c-6 -7 -13 -23 -17 -34 -17 -56 -164 -176 -273 -224 -26
-12 -57 -25 -68 -31 -91 -43 -333 -100 -507 -118 -124 -14 -401 -14 -543 -1
-116 11 -347 60 -427 90 -26 10 -49 15 -52 13 -6 -6 3 -285 9 -319 3 -15 21
-25 77 -42 337 -102 833 -116 1193 -35 245 55 449 153 549 264 73 81 81 105
84 264 3 144 -4 199 -25 173z"/>
<path d="M571 5314 c0 -11 3 -14 6 -6 3 7 2 16 -1 19 -3 4 -6 -2 -5 -13z"/>
<path d="M5508 3830 c-3 -38 -11 -76 -18 -85 -7 -8 -65 -44 -129 -81 -64 -36
-154 -88 -201 -116 -47 -28 -130 -76 -185 -106 -55 -30 -131 -74 -170 -97 -38
-23 -133 -78 -210 -122 -168 -96 -476 -273 -525 -300 -19 -11 -138 -80 -265
-153 -350 -201 -457 -262 -492 -279 -18 -8 -33 -19 -33 -23 0 -4 -4 -8 -9 -8
-4 0 -95 -50 -202 -111 -107 -62 -207 -120 -224 -129 -16 -9 -86 -50 -155 -90
-69 -40 -172 -99 -230 -132 -58 -32 -112 -63 -120 -69 -8 -5 -59 -34 -114 -63
l-98 -54 43 -28 c57 -36 76 -59 94 -118 16 -53 21 -241 7 -250 -5 -3 -159 80
-343 185 -184 105 -352 201 -374 213 -22 13 -156 89 -298 170 -145 83 -264
145 -272 142 -8 -3 -15 -13 -16 -23 -4 -96 -4 -98 16 -109 28 -15 726 -412
855 -487 426 -245 431 -247 483 -205 l29 24 -1 158 c-1 109 -6 170 -16 199 -8
23 -15 45 -15 48 0 4 30 21 68 39 37 17 87 46 112 64 25 17 63 41 85 53 80 41
107 58 135 84 15 14 50 36 77 49 26 13 56 27 65 32 10 4 22 8 27 8 5 0 37 19
71 42 35 23 98 60 140 82 42 23 115 63 161 90 46 27 98 56 114 64 17 9 64 37
105 62 41 26 85 50 98 54 12 4 22 11 22 16 0 4 12 11 28 15 15 3 34 12 42 19
21 17 137 86 144 86 4 0 30 16 59 35 28 19 55 35 60 35 4 0 51 27 105 59 111
67 151 90 242 139 36 19 72 40 81 48 8 8 21 14 27 14 7 0 20 8 30 18 11 9 39
28 63 41 112 59 176 95 199 111 14 9 50 29 80 45 66 33 65 32 165 92 44 27 94
55 110 63 17 8 47 27 69 42 21 15 71 43 112 62 40 19 77 44 83 54 9 17 40 35
161 92 40 19 83 43 90 50 3 3 36 20 74 39 39 18 79 42 90 52 11 11 26 19 33
19 19 0 16 12 -10 51 -19 28 -194 147 -218 149 -4 0 -9 -31 -11 -70z"/>
<path d="M362 3185 c-80 -15 -109 -37 -150 -113 -36 -68 -92 -220 -92 -251 0
-40 -18 -29 -24 14 -7 54 -23 88 -65 135 l-31 35 0 -157 0 -158 26 0 c14 0 34
5 45 10 25 14 26 10 33 -123 4 -98 3 -108 -12 -103 -9 2 -34 7 -54 11 -35 5
-38 4 -38 -18 0 -21 8 -27 54 -41 83 -26 154 -25 215 4 28 14 51 28 51 33 0 5
7 15 15 23 19 19 19 54 2 78 -11 16 -22 18 -60 12 -28 -4 -47 -12 -47 -20 0
-15 -38 -52 -45 -44 -11 10 15 134 48 235 53 159 108 238 240 343 37 29 67 59
67 66 0 32 -86 46 -178 29z"/>
<path d="M6307 3006 c-17 -13 -16 -15 12 -21 36 -8 82 12 60 26 -20 13 -51 10
-72 -5z m58 -6 c-3 -5 -15 -10 -26 -10 -10 0 -19 5 -19 10 0 6 12 10 26 10 14
0 23 -4 19 -10z"/>
<path d="M6225 2959 c-27 -16 -54 -30 -60 -32 -5 -2 -9 -24 -9 -49 2 -78 62
-158 119 -158 21 0 66 30 60 40 -3 4 9 10 26 14 22 4 30 10 25 21 -3 9 0 15
10 15 9 0 12 -5 8 -12 -4 -7 -3 -8 4 -4 7 4 9 18 6 32 -5 20 -3 23 11 17 15
-5 17 -2 13 15 -4 12 -2 20 3 16 13 -8 11 -42 -3 -47 -8 -4 -7 -6 3 -6 23 -1
29 19 19 60 -4 19 -8 28 -9 22 -1 -7 -7 -13 -15 -13 -8 0 -17 -8 -19 -17 -3
-12 -5 -9 -6 8 -1 32 -24 54 -47 45 -9 -4 -14 -9 -11 -13 4 -3 2 -12 -3 -19
-8 -9 -3 -15 18 -25 24 -11 27 -15 17 -26 -19 -19 -69 -17 -61 2 3 8 1 15 -4
15 -6 0 -10 8 -10 18 0 11 -17 28 -42 42 -38 21 -40 24 -23 36 10 7 23 15 29
17 6 2 9 7 6 9 -3 3 -27 -7 -55 -23z"/>
<path d="M6397 2984 c-3 -4 -21 -10 -39 -15 l-33 -9 37 4 c31 4 37 1 42 -19 6
-25 36 -25 36 0 0 15 -35 47 -43 39z"/>
<path d="M6280 2960 c-8 -5 -12 -12 -9 -15 8 -8 39 5 39 16 0 11 -11 11 -30
-1z"/>
<path d="M7335 2871 c-8 -7 -1252 -722 -1425 -819 -25 -13 -49 -28 -55 -32 -5
-4 -39 -23 -75 -42 -103 -56 -130 -73 -130 -78 0 -3 13 -13 29 -23 29 -17 101
-140 101 -173 1 -53 9 -49 596 287 318 183 595 342 616 353 20 12 111 64 202
116 l166 95 0 162 c0 90 -4 163 -8 163 -4 0 -12 -4 -17 -9z"/>
<path d="M5130 2246 c-73 -44 -372 -217 -435 -251 -27 -15 -54 -31 -60 -35 -5
-4 -145 -85 -310 -180 -165 -95 -353 -204 -419 -242 -65 -37 -123 -68 -128
-68 -17 0 -82 -33 -102 -52 -13 -12 -23 -15 -30 -8 -16 16 -32 12 -65 -16
l-31 -26 30 -30 c17 -16 30 -39 30 -51 0 -38 14 -50 49 -42 21 4 37 17 46 36
9 17 36 39 65 54 28 14 50 29 50 34 0 5 62 45 138 89 346 201 753 436 1123
648 81 47 152 91 159 98 15 19 -13 76 -38 76 -9 0 -42 -15 -72 -34z"/>
<path d="M857 1790 c-14 -16 -30 -30 -36 -30 -6 0 -7 -7 -4 -17 4 -11 3 -14
-5 -9 -6 4 -29 -9 -50 -29 -22 -19 -43 -35 -47 -35 -4 0 -20 -9 -36 -21 -16
-11 -37 -19 -46 -18 -25 3 -73 -11 -73 -22 0 -5 -9 -9 -19 -9 -11 0 -40 -9
-66 -20 -69 -29 -163 -41 -328 -41 l-147 0 0 -74 c0 -72 1 -75 26 -81 41 -11
233 3 304 21 76 19 223 75 228 87 2 4 8 8 14 8 19 0 112 67 180 130 62 56 147
174 135 186 -2 3 -16 -9 -30 -26z"/>
<path d="M5635 1758 c-11 -6 -21 -12 -23 -13 -1 -1 9 -25 23 -53 14 -27 25
-57 25 -65 0 -23 17 -29 40 -15 17 11 20 19 15 48 -7 35 -44 110 -54 110 -3 0
-15 -6 -26 -12z"/>
<path d="M3448 1249 c-21 -20 -38 -42 -38 -48 0 -14 37 -15 45 -1 3 6 19 10
35 10 39 0 43 12 17 46 l-22 30 -37 -37z"/>
</g>
</svg>
