<?xml version="1.0" standalone="no"?>
<!DOCTYPE svg PUBLIC "-//W3C//DTD SVG 20010904//EN"
 "http://www.w3.org/TR/2001/REC-SVG-20010904/DTD/svg10.dtd">
<svg version="1.0" xmlns="http://www.w3.org/2000/svg"
 width="512.000000pt" height="512.000000pt" viewBox="0 0 512.000000 512.000000"
 preserveAspectRatio="xMidYMid meet">

<g transform="translate(0.000000,512.000000) scale(0.100000,-0.100000)"
fill="#000000" stroke="none">
<path d="M214 4579 c-75 -28 -137 -88 -176 -167 l-33 -67 0 -1785 0 -1785 33
-67 c39 -80 102 -139 179 -168 54 -20 62 -20 2101 -18 l2047 3 48 23 c62 31
127 96 157 157 l25 50 3 1225 2 1224 249 251 c267 269 279 286 266 368 -6 37
-23 58 -153 190 -114 115 -155 150 -184 158 -47 12 -100 3 -132 -22 -13 -11
-29 -19 -34 -19 -6 0 -10 44 -11 105 -2 151 -37 231 -131 300 -96 70 82 65
-2169 64 -2004 0 -2037 0 -2087 -20z m4148 -157 c20 -13 47 -40 60 -60 21 -34
23 -50 26 -216 l4 -179 -1035 -1036 -1035 -1036 -58 -115 c-154 -311 -254
-534 -254 -570 0 -47 32 -90 67 -90 15 0 171 66 347 148 l321 147 823 820 822
820 -2 -1130 -3 -1130 -23 -37 c-13 -20 -40 -47 -60 -60 l-37 -23 -1999 -3
c-1326 -1 -2011 1 -2036 8 -50 13 -86 43 -110 91 -20 38 -20 66 -20 1789 0
1698 1 1752 19 1788 10 20 28 45 39 55 53 48 -33 46 2102 44 l2005 -2 37 -23z
m488 -517 l114 -115 -1114 -1115 -1115 -1114 -214 -101 c-118 -55 -216 -99
-218 -97 -1 2 41 97 95 210 l97 207 1115 1119 c613 615 1117 1119 1120 1120 3
0 57 -51 120 -114z"/>
</g>
</svg>
