<?xml version="1.0" standalone="no"?>
<!DOCTYPE svg PUBLIC "-//W3C//DTD SVG 20010904//EN"
 "http://www.w3.org/TR/2001/REC-SVG-20010904/DTD/svg10.dtd">
<svg version="1.0" xmlns="http://www.w3.org/2000/svg"
 width="626.000000pt" height="626.000000pt" viewBox="0 0 626.000000 626.000000"
 preserveAspectRatio="xMidYMid meet">

<g transform="translate(0.000000,626.000000) scale(0.100000,-0.100000)"
fill="#000000" stroke="none">
<path d="M3093 5798 c-21 -20 -23 -21 -41 -5 -24 22 -74 22 -102 -1 -22 -18
-22 -18 -9 -145 7 -70 17 -127 22 -127 5 0 5 33 1 78 -5 42 -9 99 -9 127 0 45
2 50 28 59 55 20 81 -19 103 -151 13 -81 19 -102 28 -92 2 2 -4 48 -12 102
-14 88 -14 102 -1 125 19 35 56 35 80 2 10 -14 22 -58 28 -98 10 -79 30 -112
65 -112 27 0 66 27 66 46 0 19 -7 18 -37 -6 -19 -15 -30 -17 -44 -9 -20 10
-22 17 -38 118 -17 101 -75 142 -128 89z"/>
<path d="M2758 5787 c-50 -22 -72 -64 -76 -142 -3 -60 0 -75 20 -105 19 -28
31 -36 61 -38 31 -3 42 2 67 30 17 18 30 38 30 45 0 28 19 11 26 -22 3 -19 11
-38 16 -42 12 -7 11 1 -21 152 -28 129 -53 153 -123 122z m77 -37 c22 -43 20
-147 -5 -187 -19 -32 -57 -50 -84 -40 -52 20 -67 135 -27 201 38 61 92 73 116
26z"/>
<path d="M3597 5699 c-51 -30 -92 -61 -96 -73 -12 -32 -84 -347 -80 -350 2 -2
99 -27 216 -56 131 -32 217 -49 225 -43 8 4 48 34 91 67 58 44 79 66 86 92 21
75 73 315 70 318 -6 6 -392 96 -409 96 -8 0 -55 -23 -103 -51z m306 -9 c97
-24 177 -46 177 -49 0 -3 -34 -27 -76 -53 l-75 -48 -87 24 c-48 14 -132 35
-187 47 -55 12 -103 25 -108 28 -9 9 154 102 168 97 6 -2 90 -23 188 -46z
m-144 -121 c85 -21 156 -41 159 -43 4 -4 -67 -326 -74 -335 -2 -3 -395 89
-402 94 -2 2 22 122 54 258 l17 79 46 -7 c25 -4 115 -24 200 -46z m294 -101
l-35 -148 -71 -59 c-39 -33 -73 -58 -75 -56 -5 5 68 319 76 326 12 11 136 88
138 86 2 -1 -13 -68 -33 -149z"/>
<path d="M3636 5440 c-32 -49 -56 -95 -54 -102 2 -6 15 5 27 26 22 35 26 37
60 31 44 -8 42 -5 48 -54 9 -67 25 -47 17 22 -16 139 -19 161 -29 164 -6 2
-37 -37 -69 -87z m68 28 c11 -44 7 -58 -18 -58 -34 0 -39 13 -19 49 21 37 29
39 37 9z"/>
<path d="M2377 5706 c-25 -17 -48 -24 -82 -24 -40 1 -51 -4 -83 -35 -33 -33
-41 -36 -75 -30 -68 11 -127 -33 -127 -94 0 -26 2 -25 19 14 11 23 29 47 41
53 22 12 70 10 102 -4 12 -6 21 0 32 23 24 45 71 67 112 52 30 -11 34 -9 63
20 33 32 49 34 121 14 l25 -7 -24 21 c-31 28 -80 27 -124 -3z"/>
<path d="M4293 5543 c-17 -6 -16 -38 1 -52 20 -16 46 -3 46 24 0 18 -22 40
-33 34 -1 0 -8 -3 -14 -6z m35 -31 c2 -7 -3 -12 -12 -12 -9 0 -16 7 -16 16 0
17 22 14 28 -4z"/>
<path d="M4387 5454 c-4 -4 -7 -18 -7 -30 0 -17 7 -25 26 -30 31 -8 47 6 42
37 -2 17 -10 25 -28 27 -14 2 -29 0 -33 -4z m46 -29 c1 -5 -6 -11 -15 -13 -11
-2 -18 3 -18 13 0 17 30 18 33 0z"/>
<path d="M4264 5416 c-8 -21 3 -36 27 -36 15 0 20 6 17 22 -4 27 -35 37 -44
14z m36 -16 c0 -5 -4 -10 -10 -10 -5 0 -10 5 -10 10 0 6 5 10 10 10 6 0 10 -4
10 -10z"/>
<path d="M1852 5375 c-19 -8 -46 -28 -62 -45 -28 -30 -28 -30 -66 -14 -71 30
-172 6 -237 -55 -44 -40 -60 -80 -62 -150 -1 -63 -2 -64 -38 -82 -78 -41 -116
-137 -87 -224 17 -50 83 -121 126 -135 19 -7 63 -10 97 -9 63 4 63 3 101 -38
45 -50 123 -83 197 -83 63 0 108 19 141 59 l27 31 37 -25 c46 -31 95 -45 160
-45 102 0 179 46 215 128 12 28 24 42 37 42 93 0 184 119 166 218 -7 39 -38
107 -53 116 -4 3 -6 36 -3 74 3 55 1 76 -16 108 -41 80 -98 121 -181 131 -67
8 -152 -19 -185 -57 l-25 -31 -38 38 c-60 60 -174 81 -251 48z m175 -16 c18
-6 51 -31 74 -57 36 -41 42 -45 50 -29 50 88 200 114 291 50 70 -48 113 -152
88 -213 -11 -27 -10 -33 12 -62 92 -122 46 -260 -98 -300 -35 -10 -44 -18 -65
-62 -28 -60 -69 -90 -141 -106 -67 -14 -139 1 -202 40 -26 17 -50 30 -54 30
-4 0 -14 -13 -24 -29 -55 -98 -266 -78 -338 32 -19 30 -29 37 -45 32 -62 -19
-94 -17 -148 8 -87 39 -137 133 -116 213 13 46 62 100 104 114 l35 11 -6 58
c-5 46 -2 65 14 97 54 105 167 150 271 108 l40 -16 36 41 c53 58 124 71 222
40z"/>
<path d="M2285 5265 c-27 -26 -31 -40 -15 -50 6 -3 10 -1 10 4 0 6 9 20 21 32
20 20 22 20 40 3 26 -23 25 -83 -1 -117 -25 -32 -34 -76 -26 -122 10 -53 26
-42 19 14 -5 40 -1 55 21 93 32 56 35 119 6 148 -26 26 -46 25 -75 -5z"/>
<path d="M1948 5205 c-3 -6 2 -75 13 -155 24 -187 28 -210 39 -210 12 0 12 11
1 67 -10 54 11 103 44 103 26 0 38 -24 55 -112 6 -32 16 -58 21 -58 12 0 11
12 -5 85 -19 90 -31 108 -69 103 -18 -3 -38 -7 -46 -9 -11 -3 -18 17 -28 86
-15 105 -17 112 -25 100z"/>
<path d="M1899 5190 c-4 -9 -12 -83 -19 -165 -7 -83 -16 -154 -20 -158 -4 -5
-21 11 -36 34 -16 23 -34 44 -40 46 -6 2 -21 -19 -33 -48 -13 -28 -26 -47 -31
-43 -4 5 -29 74 -55 154 -46 140 -59 169 -69 159 -6 -6 55 -211 87 -294 30
-76 48 -81 72 -18 10 26 21 52 25 56 4 5 22 -15 40 -42 30 -48 60 -67 60 -38
0 7 7 84 16 171 15 154 16 219 3 186z"/>
<path d="M2154 4986 c8 -63 35 -120 59 -124 11 -2 29 6 42 18 l24 23 5 -24
c15 -75 16 -100 2 -133 -17 -41 -39 -46 -72 -15 -24 22 -39 14 -21 -12 21 -28
54 -40 81 -29 52 20 57 69 23 229 -25 114 -46 146 -40 59 3 -37 0 -59 -11 -73
-23 -30 -48 -8 -66 58 -20 73 -35 86 -26 23z"/>
<path d="M2330 4930 c0 -5 5 -10 10 -10 6 0 10 5 10 10 0 6 -4 10 -10 10 -5 0
-10 -4 -10 -10z"/>
<path d="M2828 5370 c-20 -11 -39 -24 -42 -29 -5 -7 68 -238 103 -326 16 -40
40 -65 62 -65 16 0 122 83 244 191 17 15 44 38 60 52 l30 26 -21 38 c-39 69
-41 69 -207 -51 -37 -26 -71 -45 -75 -42 -4 4 -28 55 -53 113 -25 59 -50 108
-55 109 -5 2 -26 -6 -46 -16z m92 -115 c25 -59 51 -110 58 -113 7 -2 32 9 55
27 73 54 176 121 186 121 9 0 41 -50 41 -64 0 -13 -294 -256 -310 -256 -13 0
-25 12 -35 38 -23 54 -115 311 -115 320 0 9 62 41 70 37 3 -2 26 -52 50 -110z"/>
<path d="M4390 5284 c-193 -38 -310 -157 -310 -316 0 -126 77 -228 198 -264
26 -8 121 -21 212 -30 201 -18 230 -25 280 -70 21 -19 40 -31 43 -27 3 4 8 31
12 60 6 44 11 53 36 63 33 14 90 74 115 122 28 53 31 175 6 230 -61 140 -228
224 -462 233 -58 2 -116 1 -130 -1z m278 -34 c106 -26 184 -64 237 -117 61
-61 80 -105 79 -186 -2 -98 -39 -169 -117 -220 -52 -35 -57 -41 -57 -76 0 -47
-9 -57 -27 -31 -28 40 -83 54 -278 70 -270 22 -352 66 -401 212 -35 106 23
241 133 309 98 61 273 77 431 39z"/>
<path d="M4282 5008 c-17 -17 -15 -53 3 -68 20 -17 62 -5 70 20 14 44 -41 80
-73 48z m46 -7 c21 -13 10 -46 -16 -49 -27 -4 -40 22 -22 43 14 17 20 18 38 6z"/>
<path d="M4496 5004 c-40 -39 6 -100 55 -74 26 14 26 66 0 80 -27 14 -37 13
-55 -6z m54 -19 c10 -12 10 -18 0 -30 -25 -30 -61 -7 -46 30 3 8 12 15 19 15
8 0 20 -7 27 -15z"/>
<path d="M4707 5003 c-11 -11 -8 -58 5 -71 36 -36 93 11 69 57 -11 20 -59 30
-74 14z m60 -47 c-8 -21 -43 -20 -51 1 -10 26 23 48 42 29 8 -8 12 -22 9 -30z"/>
<path d="M3630 5018 c-14 -41 -17 -43 -57 -46 -51 -4 -54 -13 -12 -43 29 -20
30 -24 24 -70 -4 -27 -4 -49 1 -49 4 0 22 11 40 25 39 30 42 30 74 5 37 -29
43 -25 36 28 -6 45 -5 48 30 71 40 28 32 41 -27 41 -32 0 -38 4 -54 40 -10 22
-23 40 -29 40 -7 0 -18 -19 -26 -42z m47 -18 c11 -28 28 -36 71 -31 22 3 13
-19 -13 -31 -22 -10 -24 -15 -18 -51 6 -42 1 -44 -38 -10 -14 11 -20 10 -42
-7 -34 -27 -40 -25 -32 11 6 25 3 34 -14 45 -29 21 -26 34 8 34 25 0 31 6 41
35 14 43 22 44 37 5z"/>
<path d="M2928 4790 c2 -22 8 -40 13 -40 10 0 11 25 3 58 -10 36 -20 25 -16
-18z"/>
<path d="M1048 4778 c-14 -41 -17 -43 -56 -46 -23 -2 -42 -6 -42 -10 0 -4 14
-18 30 -32 30 -24 31 -28 22 -68 -6 -23 -6 -44 -2 -47 4 -3 24 9 45 25 l37 30
30 -25 c43 -36 50 -32 42 24 -6 46 -5 49 25 70 43 31 39 41 -15 41 -44 0 -46
1 -61 40 -21 51 -38 51 -55 -2z m46 -20 c8 -17 22 -24 49 -26 44 -4 47 -14 11
-31 -24 -11 -26 -15 -20 -52 7 -43 2 -44 -37 -11 -15 14 -19 13 -40 -6 -32
-30 -40 -28 -35 9 4 23 -1 34 -19 49 -31 24 -29 30 8 30 25 0 32 6 45 36 16
38 20 38 38 2z"/>
<path d="M5181 4775 c-23 -34 -26 -35 -69 -29 -41 6 -43 5 -34 -12 6 -11 17
-28 25 -38 12 -17 11 -23 -7 -57 -11 -21 -18 -41 -14 -45 4 -3 26 1 50 11 l42
17 27 -34 c15 -18 29 -31 32 -28 2 3 8 25 13 50 8 40 12 45 47 53 20 5 37 13
37 18 0 4 -20 17 -44 28 -39 17 -45 24 -51 60 -8 50 -23 52 -54 6z m39 -17 c0
-32 11 -45 44 -58 31 -11 26 -25 -9 -32 -15 -2 -21 -13 -25 -43 l-5 -40 -22
29 c-21 26 -25 27 -54 17 -39 -14 -43 -11 -28 22 10 22 9 31 -5 51 -22 34 -20
37 10 26 37 -14 41 -13 61 20 21 36 33 38 33 8z"/>
<path d="M3307 4702 c-40 -42 -33 -62 8 -22 19 19 35 38 35 42 0 15 -16 8 -43
-20z"/>
<path d="M2928 4667 c-103 -39 -178 -157 -178 -283 0 -67 29 -154 72 -214 112
-158 154 -235 139 -254 -11 -13 -7 -100 8 -160 10 -42 24 -56 58 -56 12 0 24
-4 28 -9 3 -5 22 -15 42 -22 21 -7 44 -18 51 -26 7 -7 21 -13 30 -13 21 0 62
27 62 41 0 15 53 79 66 79 6 0 19 9 29 20 15 17 16 24 7 46 -7 13 -12 36 -12
49 0 13 -4 27 -10 30 -5 3 -10 19 -10 35 0 18 -8 34 -21 44 -34 23 -35 86 -4
232 39 184 23 288 -57 379 -66 75 -211 115 -300 82z m211 -38 c136 -68 178
-201 131 -413 -11 -50 -20 -125 -20 -167 0 -76 0 -77 -27 -83 -16 -4 -36 -9
-45 -12 -20 -6 -21 -1 -52 151 -24 115 -24 119 -6 152 17 31 17 67 1 77 -16
10 -33 -14 -38 -53 -7 -54 -31 -55 -29 -2 1 45 -6 56 -30 47 -13 -5 -15 -15
-10 -51 8 -52 -1 -57 -32 -15 -13 17 -32 30 -43 30 -34 0 -21 -50 21 -78 32
-21 38 -33 67 -140 18 -64 32 -123 33 -129 0 -8 -14 -13 -38 -13 -37 0 -40 3
-63 52 -13 29 -56 101 -96 160 -54 81 -74 122 -83 165 -23 108 5 215 74 286
48 50 88 66 162 67 49 0 73 -6 123 -31z m-99 -336 c0 -20 -3 -24 -11 -16 -7 7
-9 19 -6 27 10 24 17 19 17 -11z m71 -26 c-8 -8 -11 -4 -11 14 0 33 14 47 18
19 2 -12 -1 -27 -7 -33z m-131 -38 c0 -13 -6 -11 -24 7 -9 8 -16 23 -16 32 1
14 5 12 20 -7 11 -13 20 -27 20 -32z m111 -40 c4 -13 17 -71 29 -128 23 -109
20 -125 -21 -119 -20 3 -26 17 -56 128 -29 113 -31 126 -17 142 21 22 55 10
65 -23z m197 -242 c6 -7 8 -18 4 -24 -16 -26 -270 -81 -307 -66 -19 7 -26 30
-12 41 7 5 48 15 92 21 44 6 105 18 135 25 72 18 76 18 88 3z m32 -83 c0 -44
-307 -109 -338 -71 -21 25 -4 47 38 47 44 0 164 22 230 43 46 14 70 8 70 -19z
m5 -68 c0 -34 -112 -68 -230 -70 -94 -1 -100 0 -100 19 0 18 9 21 91 28 51 4
118 16 150 26 70 23 89 22 89 -3z m-65 -71 c0 -15 -70 -45 -107 -45 -82 0 -81
14 2 31 95 19 105 21 105 14z m-45 -65 c-3 -5 -18 -10 -33 -9 -24 0 -25 1 -7
9 28 12 47 12 40 0z"/>
<path d="M3865 4535 l-17 -95 -34 6 c-79 15 -112 8 -150 -30 -40 -40 -45 -80
-14 -118 35 -45 95 -58 153 -33 13 5 17 2 17 -14 0 -12 5 -21 10 -21 6 0 10 2
10 5 0 11 50 351 55 373 3 12 1 22 -4 22 -5 0 -17 -43 -26 -95z m-41 -117 c15
-8 17 -18 13 -54 -2 -25 -13 -54 -22 -64 -51 -57 -165 -17 -165 58 0 22 34 56
70 71 26 10 72 6 104 -11z"/>
<path d="M2600 4568 c0 -12 58 -58 73 -58 16 0 -13 36 -42 53 -23 13 -31 15
-31 5z"/>
<path d="M4576 4473 c-3 -16 -8 -47 -11 -70 -6 -40 -8 -42 -36 -36 -18 3 -29
1 -29 -6 0 -6 11 -11 25 -11 l25 0 -6 -108 c-7 -117 1 -152 37 -152 30 0 59
18 59 37 0 15 -2 15 -18 0 -23 -21 -48 -22 -56 -1 -8 20 -8 75 0 153 l7 61 33
0 c19 0 34 5 34 10 0 6 -14 10 -31 10 l-31 0 7 53 c3 28 9 60 11 70 3 9 1 17
-5 17 -5 0 -12 -12 -15 -27z"/>
<path d="M5100 4489 c-123 -21 -249 -109 -291 -204 -29 -66 -43 -188 -32 -278
5 -41 6 -83 2 -94 -24 -60 6 -238 47 -284 20 -22 66 -25 83 -5 6 7 30 14 53
14 60 1 73 19 72 101 -2 82 -25 168 -55 200 -21 22 -56 26 -108 10 -35 -10
-42 155 -11 255 33 105 105 171 222 202 160 42 313 -10 383 -130 23 -39 65
-148 65 -168 0 -4 -16 -8 -35 -8 -87 0 -101 -103 -33 -261 25 -60 57 -78 101
-60 18 8 47 13 65 12 21 -1 39 6 53 20 19 19 21 29 16 83 -8 81 -43 173 -80
210 -18 18 -38 58 -53 104 -13 40 -32 88 -41 105 -75 148 -221 209 -423 176z
m236 -30 c65 -25 125 -74 160 -134 29 -51 76 -184 68 -196 -11 -19 -21 -7 -38
49 -25 78 -41 107 -89 160 -62 67 -143 102 -237 102 -147 -1 -282 -71 -335
-175 -28 -54 -30 -68 -34 -187 -2 -98 -6 -128 -16 -128 -33 0 -32 212 1 305
33 93 150 185 273 214 71 17 187 12 247 -10z m284 -379 c49 -69 79 -220 50
-255 -7 -9 -23 -15 -34 -13 -18 3 -27 23 -58 138 -21 74 -35 141 -33 148 8 23
53 13 75 -18z m-59 -128 l36 -133 -21 -14 c-61 -44 -110 10 -135 151 -13 71
-3 110 31 124 45 18 51 10 89 -128z m-589 -32 c25 -34 48 -123 48 -187 0 -62
-18 -85 -64 -81 l-31 3 -28 135 c-26 128 -26 136 -10 148 26 19 63 11 85 -18z
m-89 -135 c13 -71 22 -136 19 -142 -2 -7 -17 -13 -34 -13 -25 0 -32 6 -48 43
-30 67 -45 172 -31 217 12 40 37 55 58 36 6 -6 22 -69 36 -141z"/>
<path d="M769 4358 c-36 -46 -75 -96 -87 -113 -41 -57 -232 -856 -232 -968 0
-73 45 -124 126 -141 58 -13 127 32 158 102 19 44 186 848 186 895 0 63 -56
302 -71 305 -8 1 -44 -35 -80 -80z m91 20 c0 -20 -17 -23 -40 -8 -12 7 -11 12
5 30 20 22 35 13 35 -22z m5 -40 c5 -6 35 -147 35 -166 0 -27 -29 -36 -51 -16
-16 14 -24 15 -44 6 -21 -10 -27 -8 -39 10 -13 18 -19 20 -39 11 -18 -9 -28
-8 -36 0 -18 18 -14 26 44 103 54 72 54 72 90 64 20 -5 38 -10 40 -12z m-154
-183 c11 4 -7 -94 -69 -377 -46 -211 -85 -389 -88 -396 -5 -17 -64 13 -64 33
0 30 72 357 122 557 48 189 54 206 69 192 9 -8 23 -12 30 -9z m54 -11 c9 -14
16 -14 33 -5 12 6 22 9 22 5 0 -25 -167 -794 -173 -801 -2 -1 -20 2 -41 8 -46
13 -51 -35 51 424 42 187 78 350 81 363 5 26 11 28 27 6z m73 -352 c-38 -185
-74 -363 -80 -394 l-10 -58 -39 0 c-47 0 -46 -3 -15 132 22 95 136 639 136
651 0 2 17 5 39 5 l38 1 -69 -337z m-276 -443 c25 -10 76 -21 113 -25 67 -7
81 -22 34 -35 -67 -17 -219 33 -227 75 -3 15 0 17 14 11 11 -4 40 -16 66 -26z
m-27 -49 c33 -15 75 -25 123 -28 39 -3 72 -7 72 -11 0 -3 -11 -23 -25 -44 -29
-41 -71 -67 -111 -67 -36 0 -100 37 -113 67 -12 27 -15 117 -3 111 4 -2 30
-15 57 -28z"/>
<path d="M1116 4411 l-28 -29 52 -66 c60 -76 61 -73 -32 -143 -26 -21 -48 -40
-48 -43 0 -10 52 -70 60 -70 4 0 38 25 76 55 38 30 71 51 75 47 75 -91 104
-122 118 -122 10 0 30 13 46 30 32 34 35 28 -50 118 l-40 43 35 32 c19 18 53
46 74 64 l39 32 -29 35 c-16 19 -33 35 -38 35 -5 1 -40 -25 -78 -56 l-70 -57
-48 55 c-27 30 -49 57 -50 62 -1 17 -38 5 -64 -22z m103 -51 c29 -33 56 -60
61 -60 5 0 39 25 75 56 l67 57 25 -25 25 -25 -71 -59 c-39 -32 -71 -63 -71
-68 0 -6 25 -39 55 -73 30 -33 55 -63 55 -66 0 -3 -12 -13 -27 -22 l-27 -18
-61 67 -60 68 -70 -56 -69 -55 -24 22 -23 22 28 25 c16 14 48 41 72 61 l43 35
-58 68 -58 68 23 19 c13 11 27 19 31 19 4 0 30 -27 59 -60z"/>
<path d="M3982 4414 c-33 -23 -52 -67 -52 -119 0 -38 5 -52 29 -76 36 -36 70
-37 110 -3 66 55 63 172 -4 200 -44 18 -55 18 -83 -2z m85 -19 c59 -41 20
-183 -50 -185 -31 0 -67 45 -67 85 0 87 61 139 117 100z"/>
<path d="M3435 4388 c-23 -12 -34 -23 -27 -26 15 -5 82 28 82 40 0 12 -11 9
-55 -14z"/>
<path d="M4181 4342 c-31 -144 -35 -172 -22 -172 4 0 13 31 20 70 14 88 28
117 57 124 32 8 71 -9 79 -35 4 -12 4 -60 0 -106 -5 -57 -4 -83 3 -79 13 8 27
146 18 180 -10 41 -34 58 -80 55 -23 -2 -47 0 -53 4 -7 4 -15 -10 -22 -41z"/>
<path d="M4420 4299 c0 -24 4 -38 10 -34 6 3 10 22 10 41 0 19 -4 34 -10 34
-5 0 -10 -18 -10 -41z"/>
<path d="M1938 4275 c-190 -43 -310 -73 -316 -80 -3 -3 3 -12 14 -19 63 -46
60 -29 29 -175 l-28 -132 20 -27 c31 -43 202 -124 330 -155 134 -34 296 -45
370 -28 77 19 92 41 125 188 30 132 33 141 46 129 12 -13 6 -225 -8 -241 -7
-9 -10 -18 -7 -21 3 -3 -6 -22 -19 -41 -17 -25 -24 -50 -24 -83 l0 -48 47 -11
c37 -10 48 -9 55 1 11 17 0 172 -15 208 -3 8 -7 68 -9 133 -3 104 -1 118 15
123 9 3 17 9 17 14 0 8 -149 121 -310 233 -114 81 -117 81 -332 32z m348 -67
c240 -170 267 -191 252 -198 -13 -7 -368 73 -400 91 -25 13 -38 11 -38 -6 0
-8 9 -15 20 -15 25 0 320 -70 339 -80 9 -5 -15 -14 -65 -25 -43 -10 -135 -30
-203 -46 l-125 -28 -82 50 c-133 80 -331 226 -321 236 9 8 440 109 483 112 5
1 68 -40 140 -91z m-550 -109 c4 -6 78 -58 166 -116 l159 -105 172 41 c95 23
190 46 212 51 21 5 41 7 44 5 5 -6 -36 -199 -52 -239 -33 -88 -300 -90 -545
-5 -100 35 -177 77 -211 113 l-24 26 23 120 c23 113 36 140 56 109z m814 -379
c0 -5 -4 -10 -10 -10 -5 0 -10 5 -10 10 0 6 5 10 10 10 6 0 10 -4 10 -10z m0
-45 c13 -16 19 -119 8 -130 -3 -3 -21 -2 -39 3 -43 11 -48 37 -19 97 24 49 31
53 50 30z"/>
<path d="M2576 4241 c14 -15 94 -26 94 -13 0 12 -34 22 -74 22 -19 0 -26 -4
-20 -9z"/>
<path d="M3590 3794 l0 -226 37 7 c76 14 159 70 189 127 20 38 17 135 -5 183
-35 74 -120 135 -191 135 l-30 0 0 -226z m143 161 c44 -33 87 -116 87 -167 0
-79 -59 -151 -149 -183 -75 -26 -71 -38 -71 188 0 112 3 206 6 210 10 10 91
-20 127 -48z"/>
<path d="M3650 3794 l0 -126 28 6 c15 4 40 21 56 38 25 28 28 36 24 85 -4 44
-11 60 -38 88 -19 19 -42 35 -52 35 -16 0 -18 -11 -18 -126z m91 29 c14 -44 3
-88 -28 -113 -48 -38 -53 -30 -53 83 0 57 3 107 7 110 11 12 62 -44 74 -80z"/>
<path d="M3913 3852 c-26 -20 -53 -90 -53 -139 0 -100 88 -172 162 -132 46 25
73 148 47 216 -19 50 -48 73 -93 73 -23 0 -51 -8 -63 -18z m82 2 c36 -9 65
-64 65 -125 0 -96 -47 -152 -114 -135 -81 20 -91 197 -14 250 24 17 32 19 63
10z"/>
<path d="M3942 3778 c-15 -15 -16 -92 -2 -119 25 -46 70 -8 70 60 0 49 -12 71
-40 71 -9 0 -21 -5 -28 -12z m48 -17 c14 -28 12 -64 -5 -87 -15 -19 -15 -19
-30 0 -17 23 -19 45 -5 80 11 31 25 33 40 7z"/>
<path d="M4157 3846 c-33 -31 -40 -59 -35 -146 3 -56 8 -74 27 -94 47 -50 155
-43 180 10 17 38 -1 54 -60 54 -37 0 -49 4 -49 15 0 15 20 22 75 27 54 5 60
84 10 134 -34 34 -111 34 -148 0z m139 -17 c17 -16 24 -34 24 -60 0 -39 -14
-49 -70 -49 -30 0 -50 -17 -50 -41 0 -22 32 -33 76 -24 41 7 56 -15 30 -44
-43 -47 -136 -28 -161 33 -31 73 -13 165 37 201 30 21 83 13 114 -16z"/>
<path d="M4190 3810 c-11 -11 -20 -29 -20 -40 0 -19 5 -21 57 -18 66 3 79 22
44 57 -26 26 -55 27 -81 1z m70 -15 c17 -21 3 -35 -36 -35 -35 0 -44 16 -22
38 16 16 43 15 58 -3z"/>
<path d="M4420 3850 c-22 -22 -35 -63 -27 -85 4 -8 29 -31 57 -51 32 -23 50
-43 48 -53 -4 -19 -55 -28 -71 -12 -15 15 -42 14 -56 -3 -39 -47 87 -99 152
-64 34 18 46 40 47 82 0 32 -6 45 -36 72 -19 19 -40 34 -45 34 -5 0 -9 7 -9
15 0 18 23 20 49 3 22 -14 51 -4 51 17 0 9 -11 27 -25 40 -32 32 -105 35 -135
5z m110 -5 c28 -15 38 -34 24 -48 -4 -3 -17 1 -29 9 -18 12 -28 13 -44 4 -32
-16 -25 -36 21 -67 73 -49 74 -118 4 -152 -32 -15 -94 -3 -116 24 -21 25 -2
36 34 18 40 -19 81 -11 88 15 8 27 -7 47 -57 82 -55 38 -61 76 -19 109 32 25
55 26 94 6z"/>
<path d="M996 3743 c-25 -7 -18 -52 42 -278 37 -136 53 -181 66 -183 59 -12
179 103 192 185 21 134 -90 269 -230 278 -28 2 -59 1 -70 -2z m144 -34 c60
-27 88 -54 116 -114 43 -90 24 -177 -54 -247 -38 -35 -86 -57 -98 -46 -12 13
-115 409 -108 420 10 15 99 8 144 -13z"/>
<path d="M1065 3660 c-3 -5 8 -62 25 -126 16 -64 30 -119 30 -120 0 -12 30 0
48 19 48 51 48 127 -1 182 -26 30 -93 59 -102 45z m103 -81 c18 -26 23 -43 19
-72 -5 -36 -30 -77 -47 -77 -6 0 -60 194 -60 216 0 15 67 -35 88 -67z"/>
<path d="M1360 3672 c-57 -57 -46 -195 21 -262 27 -27 37 -31 77 -28 35 2 49
9 65 29 43 58 29 193 -25 255 -40 46 -96 48 -138 6z m119 -11 c33 -36 51 -91
51 -160 0 -45 -4 -57 -29 -82 -35 -34 -45 -35 -88 -9 -41 24 -63 68 -70 136
-7 64 9 109 46 129 39 21 60 18 90 -14z"/>
<path d="M1400 3611 c-28 -53 7 -151 55 -151 29 0 41 31 32 87 -12 71 -62 109
-87 64z m56 -19 c28 -45 24 -122 -6 -122 -26 0 -54 113 -33 133 11 12 28 7 39
-11z"/>
<path d="M5534 3636 c-67 -30 -111 -127 -93 -207 19 -83 60 -110 109 -71 23
19 27 44 15 104 -9 47 6 68 49 68 45 0 76 -35 76 -86 0 -45 -18 -75 -78 -129
-24 -21 -52 -56 -63 -76 -37 -74 -15 -218 34 -227 10 -2 29 -1 43 2 22 6 24
11 24 74 1 78 10 98 67 146 89 77 113 200 60 309 -38 77 -82 107 -157 107 -30
-1 -69 -7 -86 -14z m140 -10 c63 -26 116 -116 116 -197 0 -70 -20 -110 -92
-186 l-70 -74 4 -67 3 -67 -35 0 c-32 0 -35 3 -47 45 -16 51 -9 122 14 160 9
14 42 50 73 80 47 45 59 63 65 98 9 54 -8 98 -46 117 -77 41 -136 -9 -109 -91
14 -40 8 -65 -21 -82 -28 -18 -51 3 -68 59 -17 56 -6 108 31 154 51 61 115 79
182 51z"/>
<path d="M1727 3403 c-9 -8 -9 -192 0 -395 l6 -158 144 0 143 0 0 65 0 65 -80
0 -80 0 0 45 0 45 80 0 80 0 0 60 0 60 -80 0 -80 0 0 45 0 45 80 0 80 0 0 65
0 65 -143 0 c-79 0 -147 -3 -150 -7z"/>
<path d="M2105 3401 c-3 -6 -3 -132 1 -281 l7 -271 56 3 56 3 5 118 5 119 76
-119 76 -118 57 -3 56 -3 0 276 0 275 -60 0 -59 0 -3 -132 -3 -133 -76 135
-76 135 -56 3 c-30 2 -58 -2 -62 -7z"/>
<path d="M2743 3401 c-105 -27 -164 -135 -165 -300 0 -72 4 -91 29 -139 77
-152 299 -146 342 10 18 67 19 147 1 158 -8 6 -53 9 -100 8 l-85 -3 -3 -52 -3
-53 45 0 c50 0 51 -1 36 -31 -12 -21 -58 -26 -90 -9 -55 29 -54 208 2 267 32
34 76 27 82 -13 2 -16 13 -20 59 -22 l57 -3 0 43 c0 48 -26 98 -63 122 -29 20
-101 28 -144 17z"/>
<path d="M3040 3128 l0 -281 122 6 c66 4 150 7 185 7 l63 0 0 60 0 60 -115 0
-115 0 0 215 0 215 -70 0 -70 0 0 -282z"/>
<path d="M3470 3130 l0 -280 70 0 70 0 0 280 0 280 -70 0 -70 0 0 -280z"/>
<path d="M3825 3398 c-79 -28 -129 -121 -106 -199 16 -53 53 -91 126 -132 69
-38 83 -69 41 -89 -37 -16 -71 2 -87 47 -13 35 -14 36 -64 33 l-50 -3 1 -35
c3 -123 138 -199 269 -153 42 15 54 25 73 63 48 96 21 165 -89 221 -65 32 -94
67 -84 99 16 50 88 44 108 -10 11 -28 15 -30 64 -30 51 0 53 1 53 26 0 50 -23
105 -54 129 -55 41 -138 55 -201 33z"/>
<path d="M4140 3130 l0 -280 70 0 69 0 3 98 3 97 55 0 55 0 3 -92 c3 -100 0
-95 62 -95 17 0 41 1 55 1 l25 1 -2 273 -3 272 -70 0 -70 0 -3 -92 -3 -93 -53
0 -53 0 -7 53 c-3 28 -6 71 -6 95 l0 42 -65 0 -65 0 0 -280z"/>
<path d="M5185 3329 c-201 -23 -467 -63 -479 -73 -12 -9 -12 -28 0 -129 19
-165 41 -307 48 -314 5 -5 485 40 569 54 29 4 37 10 37 27 0 27 -28 337 -36
399 -7 54 -1 52 -139 36z m119 -31 c13 -62 37 -401 30 -408 -14 -13 -553 -65
-563 -54 -10 10 -49 275 -53 359 l-3 49 80 14 c106 18 432 60 472 61 26 1 34
-4 37 -21z"/>
<path d="M4966 3100 c5 -100 14 -160 23 -160 4 0 5 27 3 60 -4 50 -2 61 13 67
25 9 51 -25 59 -76 3 -23 11 -41 17 -41 6 0 8 8 5 18 -3 9 -8 34 -11 54 -9 46
-36 72 -68 64 -22 -5 -25 -2 -35 47 -11 50 -11 48 -6 -33z"/>
<path d="M4854 3120 c5 -31 3 -42 -9 -46 -19 -8 -20 -24 -1 -24 16 0 26 -21
26 -56 0 -55 41 -84 70 -49 17 20 5 31 -16 15 -13 -12 -17 -11 -25 1 -5 8 -9
23 -9 34 0 11 -3 30 -6 43 -5 16 -2 22 10 22 9 0 16 5 16 10 0 6 -7 10 -15 10
-10 0 -17 14 -21 40 -4 22 -11 40 -17 40 -6 0 -7 -16 -3 -40z"/>
<path d="M5126 3088 c-22 -30 -20 -81 2 -101 30 -27 112 -20 112 9 0 17 -1 17
-36 0 -19 -11 -33 -12 -46 -5 -26 14 -22 29 7 29 34 0 61 41 45 69 -15 29 -64
28 -84 -1z m69 -8 c10 -16 -15 -40 -41 -40 -27 0 -28 3 -14 31 11 20 45 26 55
9z"/>
<path d="M1060 3095 c0 -3 9 -16 21 -28 30 -32 74 -124 90 -187 18 -78 16
-214 -5 -278 -10 -29 -15 -56 -12 -59 10 -10 15 0 32 67 23 92 15 253 -17 337
-26 66 -82 153 -99 153 -5 0 -10 -2 -10 -5z"/>
<path d="M715 2996 c-33 -16 -72 -49 -113 -95 -35 -39 -81 -80 -103 -91 -43
-23 -43 -20 -29 -110 18 -115 15 -110 66 -110 49 0 71 -9 151 -63 37 -25 69
-38 108 -42 77 -10 105 -1 105 33 0 25 -63 430 -75 480 -7 30 -45 29 -110 -2z
m95 -5 c0 -5 15 -97 34 -203 19 -106 37 -214 41 -240 l6 -48 -58 0 c-61 0
-108 18 -172 65 -36 27 -90 45 -132 45 -25 0 -28 4 -38 63 -16 94 -15 100 24
121 20 11 54 40 77 65 22 25 52 59 66 75 41 46 152 87 152 57z"/>
<path d="M1015 2964 c48 -63 69 -139 62 -228 -3 -39 -9 -82 -13 -96 -5 -19 -4
-22 5 -14 7 6 17 41 24 77 18 105 -12 223 -70 282 -41 41 -46 29 -8 -21z"/>
<path d="M5586 2944 c-36 -35 -9 -94 43 -94 36 0 51 17 51 57 0 49 -59 72 -94
37z m72 -16 c16 -16 15 -33 -4 -52 -20 -21 -30 -20 -54 4 -16 16 -18 25 -10
40 12 22 49 27 68 8z"/>
<path d="M900 2886 c0 -3 10 -21 21 -41 17 -28 20 -47 17 -90 -3 -30 -1 -55 3
-55 9 0 19 38 19 74 0 33 -37 116 -51 116 -5 0 -9 -2 -9 -4z"/>
<path d="M1612 2723 c-22 -9 -44 -63 -37 -92 11 -44 34 -61 82 -61 34 0 50 -6
69 -25 30 -30 28 -51 -6 -76 -21 -16 -31 -17 -63 -8 -45 12 -61 4 -33 -17 32
-23 93 -18 121 11 52 51 15 135 -59 135 -62 0 -86 15 -86 54 0 40 20 59 61 58
25 -1 28 2 18 14 -11 14 -42 17 -67 7z"/>
<path d="M4430 2702 c0 -45 69 -385 80 -396 16 -16 13 17 -25 220 -19 104 -35
192 -35 197 0 4 -4 7 -10 7 -5 0 -10 -13 -10 -28z"/>
<path d="M1410 2700 c0 -16 5 -21 23 -18 12 2 22 10 22 18 0 8 -10 16 -22 18
-18 3 -23 -2 -23 -18z"/>
<path d="M5061 2683 c-63 -235 -99 -389 -93 -394 4 -4 59 -19 122 -34 401 -93
543 -124 550 -120 10 6 23 48 80 264 23 85 37 157 33 161 -11 9 -639 160 -668
160 -8 0 -19 -17 -24 -37z m364 -58 c153 -36 281 -68 284 -70 2 -3 -2 -7 -10
-9 -8 -3 -84 -30 -169 -61 -85 -30 -158 -55 -161 -55 -7 0 -162 158 -225 229
-29 33 -34 42 -19 38 11 -3 146 -35 300 -72z m-278 3 c32 -35 93 -99 135 -143
l77 -79 63 23 c35 12 119 43 187 67 l123 44 -6 -35 c-9 -47 -93 -346 -100
-352 -3 -4 -579 125 -633 142 -12 4 -4 47 42 220 13 50 29 109 35 133 6 23 13
42 15 42 2 0 30 -28 62 -62z"/>
<path d="M2402 2675 c-16 -12 -27 -13 -41 -5 -36 18 -87 12 -120 -16 -30 -25
-32 -26 -65 -10 -42 20 -59 20 -96 1 -43 -22 -80 -85 -50 -85 6 0 10 6 10 14
0 22 58 66 87 66 14 0 38 -10 55 -21 l29 -21 31 31 c34 35 89 42 123 17 17
-12 22 -11 45 6 36 26 82 26 116 -1 36 -29 47 -16 11 15 -33 28 -100 33 -135
9z"/>
<path d="M4120 2632 c0 -35 90 -435 101 -446 17 -18 9 31 -37 236 -46 201 -63
258 -64 210z"/>
<path d="M4010 2613 c-1 -35 93 -443 102 -443 13 0 11 14 -33 210 -22 102 -43
200 -46 218 -6 34 -23 45 -23 15z"/>
<path d="M1460 2607 c0 -14 69 -217 77 -226 2 -3 7 0 12 5 11 11 -61 226 -77
232 -7 2 -12 -3 -12 -11z"/>
<path d="M3710 2562 c0 -12 9 -65 21 -118 11 -53 19 -97 17 -98 -8 -5 -183
-44 -186 -41 -2 2 -14 53 -26 114 -22 110 -36 148 -36 98 0 -48 87 -436 101
-451 16 -17 10 47 -11 123 -12 41 -19 79 -16 86 6 17 176 51 185 37 4 -7 17
-55 30 -107 13 -52 27 -95 32 -95 15 0 11 23 -42 243 -48 199 -69 262 -69 209z"/>
<path d="M4637 2506 c-5 -11 1 -13 27 -9 48 8 65 -17 43 -63 -21 -43 -21 -44
1 -44 39 0 57 -55 27 -80 -19 -15 -19 -30 -2 -30 19 0 47 -33 47 -55 0 -10 -7
-27 -17 -37 -22 -25 -8 -36 17 -13 26 24 26 79 0 105 -15 15 -18 27 -13 50 4
23 0 39 -15 60 -16 21 -20 37 -15 63 4 28 1 37 -18 51 -29 20 -75 21 -82 2z"/>
<path d="M2798 2480 c-94 -16 -149 -41 -201 -91 -46 -45 -53 -48 -71 -35 -41
26 -98 38 -180 38 -101 -1 -144 -12 -256 -64 -47 -22 -103 -47 -125 -56 -22
-8 -44 -22 -48 -29 -4 -7 -18 -13 -30 -13 -52 0 -67 -11 -67 -47 0 -79 128
-834 144 -850 8 -9 175 13 448 58 151 25 248 37 265 32 37 -9 55 -5 73 17 11
13 55 25 170 44 85 15 237 43 338 63 l182 36 0 27 c0 29 -81 572 -106 710 -8
47 -18 100 -21 118 l-6 34 -60 -7 c-35 -4 -62 -3 -66 2 -8 13 -322 23 -383 13z
m369 -27 c6 -17 133 -779 133 -794 0 -15 -19 -17 -137 -21 -160 -5 -254 -27
-379 -88 -43 -21 -81 -37 -83 -35 -6 7 -131 757 -131 788 0 59 62 113 168 148
50 17 81 19 242 15 101 -2 186 -8 187 -13z m165 -238 c76 -466 97 -610 90
-617 -8 -8 -317 -69 -492 -98 -69 -11 -137 -23 -152 -26 -16 -3 -28 -1 -28 4
0 5 62 19 138 32 278 45 504 88 512 96 6 7 -54 356 -135 792 -4 23 -11 32 -25
32 -11 0 -20 5 -20 11 0 6 16 9 37 7 l38 -3 37 -230z m-93 43 c18 -101 50
-273 71 -383 49 -252 48 -249 30 -252 -12 -3 -27 70 -83 399 -37 222 -67 406
-67 411 0 4 4 7 8 7 5 0 23 -82 41 -182z m20 110 c40 -203 132 -751 127 -756
-7 -6 -496 -95 -584 -106 l-47 -6 55 20 c78 29 224 57 397 76 81 9 152 19 156
23 4 4 -25 183 -66 397 -41 214 -72 392 -70 397 11 19 23 2 32 -45z m-763 -18
c43 -22 50 -30 57 -65 19 -102 126 -770 123 -772 -2 -2 -44 2 -93 8 -112 15
-234 -3 -401 -60 -110 -37 -112 -38 -117 -17 -8 41 -125 781 -125 794 0 6 4
12 10 12 5 0 60 23 121 51 150 69 188 79 290 76 66 -2 96 -8 135 -27z m-506
-541 c58 -357 66 -428 43 -405 -5 5 -132 773 -133 804 0 8 6 12 13 10 8 -3 35
-144 77 -409z m-105 391 c-3 -5 -13 -10 -20 -10 -10 0 -13 -8 -10 -27 3 -16
32 -192 65 -393 33 -201 64 -378 69 -394 11 -32 7 -46 -9 -30 -17 17 -154 847
-142 859 10 10 53 5 47 -5z m10 -42 c2 -13 30 -183 60 -378 31 -195 59 -365
64 -376 l9 -21 109 24 c224 50 301 63 403 68 58 3 101 3 95 1 -21 -10 -605
-107 -622 -104 -14 2 -21 29 -40 143 -12 77 -41 250 -63 385 -22 135 -40 253
-40 263 0 25 19 21 25 -5z m1395 -537 c0 -4 -39 -11 -87 -14 -97 -7 -235 -29
-327 -52 -32 -9 -61 -14 -63 -11 -7 6 137 56 207 70 72 16 270 21 270 7z
m-685 -121 c4 -6 -18 -10 -58 -10 -71 0 -253 -30 -366 -61 -40 -11 -76 -18
-78 -15 -5 5 128 50 227 75 81 22 264 29 275 11z m116 -31 c16 -8 18 -13 8
-25 -13 -16 -28 -18 -48 -5 -12 8 -12 12 -2 25 16 19 17 19 42 5z m-81 -18
c-26 -15 -616 -108 -625 -99 -4 4 584 105 620 107 16 0 17 -1 5 -8z"/>
<path d="M2960 2362 c-31 -9 -82 -15 -117 -13 -42 1 -72 -3 -93 -14 -43 -22
-32 -29 13 -10 25 10 53 13 89 9 36 -4 67 -1 97 10 24 9 57 16 73 16 17 0 27
4 23 10 -8 13 -19 12 -85 -8z"/>
<path d="M2998 2176 c-37 -7 -92 -11 -121 -8 -38 3 -63 -1 -86 -13 -44 -22
-34 -29 14 -9 26 11 52 14 79 10 43 -7 185 11 201 25 11 11 -1 10 -87 -5z"/>
<path d="M3020 1987 c-14 -6 -65 -11 -115 -12 -71 0 -96 -4 -118 -19 -15 -10
-25 -21 -23 -24 3 -3 11 0 18 5 30 24 85 34 132 23 37 -8 54 -7 88 7 24 9 62
16 85 16 24 0 40 3 37 8 -7 13 -74 10 -104 -4z"/>
<path d="M3045 1780 c-11 -5 -54 -7 -95 -3 -57 4 -85 1 -114 -11 -54 -22 -40
-30 19 -10 39 14 56 15 95 6 37 -9 57 -8 95 3 26 8 59 12 73 8 17 -4 23 -2 18
6 -8 13 -62 14 -91 1z"/>
<path d="M2281 2239 c-14 -5 -50 -7 -81 -3 -46 5 -66 2 -105 -15 -26 -12 -46
-23 -43 -26 3 -3 18 2 35 10 18 9 71 17 129 20 186 10 215 13 221 19 10 10
-130 6 -156 -5z"/>
<path d="M2115 2082 c-11 -2 -24 -8 -30 -14 -7 -7 1 -7 25 -2 35 9 65 9 155 5
53 -3 184 5 191 12 6 5 -314 4 -341 -1z"/>
<path d="M2406 1895 c-28 -8 -69 -11 -97 -8 -59 7 -105 -1 -148 -28 -49 -30
-33 -32 24 -3 45 22 58 24 125 19 58 -4 90 -1 140 14 76 23 37 28 -44 6z"/>
<path d="M2455 1688 c-22 -5 -78 -7 -125 -4 -86 6 -153 -5 -166 -26 -5 -8 -2
-9 12 -3 10 5 66 10 124 11 121 1 200 11 200 25 0 5 -1 9 -2 8 -2 -1 -21 -5
-43 -11z"/>
<path d="M4271 2431 c-29 -29 -37 -103 -16 -156 46 -121 166 -92 165 39 -1 41
-33 112 -58 125 -31 17 -70 13 -91 -8z m88 -23 c64 -68 40 -203 -33 -184 -35
9 -70 85 -61 134 13 69 56 92 94 50z"/>
<path d="M3884 2378 c-48 -23 -59 -113 -21 -169 32 -48 89 -67 139 -46 41 17
77 72 59 90 -7 7 -12 5 -17 -9 -24 -66 -102 -87 -149 -39 -35 34 -31 47 20 69
53 21 71 46 55 76 -10 19 -41 41 -57 39 -4 0 -18 -5 -29 -11z m63 -33 c7 -20
-22 -52 -53 -58 -33 -6 -41 15 -20 48 19 28 63 34 73 10z"/>
<path d="M707 2343 c-2 -5 -10 -25 -16 -45 -11 -33 -16 -38 -44 -38 -55 0 -64
-14 -27 -41 30 -23 32 -27 26 -71 -5 -51 8 -64 34 -32 28 33 50 37 75 14 36
-34 56 -21 43 27 -9 35 -8 39 18 60 16 13 32 23 37 23 4 0 7 4 7 10 0 5 -22
12 -49 16 -45 6 -50 10 -67 45 -16 38 -28 47 -37 32z m33 -56 c12 -25 23 -33
50 -37 l35 -5 -27 -18 c-23 -16 -26 -23 -21 -54 l6 -36 -31 19 c-31 18 -32 18
-55 -4 -32 -30 -39 -28 -31 13 5 29 2 38 -17 55 l-24 19 26 1 c31 0 45 14 54
53 9 35 17 34 35 -6z"/>
<path d="M4520 2245 c0 -8 5 -15 10 -15 6 0 10 7 10 15 0 8 -4 15 -10 15 -5 0
-10 -7 -10 -15z"/>
<path d="M1006 2116 c-135 -57 -204 -187 -176 -329 16 -82 41 -128 92 -170 66
-54 115 -70 202 -65 l74 3 20 -50 c11 -27 23 -70 26 -95 6 -47 83 -254 111
-296 10 -16 25 -24 43 -24 36 0 52 17 52 55 0 36 -102 290 -128 319 -10 12
-27 42 -36 69 l-18 47 50 48 c69 66 96 139 89 243 -6 85 -23 126 -76 182 -54
58 -104 80 -191 84 -63 3 -85 0 -134 -21z m234 -17 c95 -42 141 -113 148 -230
5 -85 -5 -124 -47 -192 -23 -36 -44 -52 -98 -78 -189 -91 -378 13 -399 221
-15 140 70 256 215 297 55 15 120 8 181 -18z m34 -578 c14 -36 15 -46 4 -52
-21 -14 -25 -11 -45 44 -19 47 -19 53 -4 58 20 8 24 4 45 -50z m85 -166 c80
-182 92 -235 55 -249 -27 -10 -59 36 -103 149 -62 161 -65 195 -17 195 21 0
29 -13 65 -95z"/>
<path d="M1025 2056 c-79 -35 -119 -103 -120 -201 0 -60 4 -78 31 -125 42 -75
95 -105 185 -105 56 0 73 5 114 30 159 99 139 339 -34 400 -53 18 -135 19
-176 1z m168 -16 c64 -24 101 -60 122 -119 22 -62 19 -100 -12 -161 -50 -97
-130 -136 -238 -116 -80 15 -145 111 -145 213 0 90 47 160 126 188 54 19 85
18 147 -5z"/>
<path d="M5404 2058 c-16 -36 -24 -43 -49 -45 -16 0 -37 -2 -44 -2 -10 -1 -4
-12 17 -34 30 -31 31 -34 20 -70 -13 -41 -5 -56 20 -41 9 6 27 17 39 25 20 12
25 11 46 -9 36 -34 50 -29 45 19 -4 39 -1 43 36 67 36 22 38 26 21 33 -11 4
-33 8 -48 8 -23 1 -31 8 -47 46 -11 25 -23 45 -28 45 -5 0 -17 -19 -28 -42z
m86 -58 c38 0 45 -14 15 -28 -20 -9 -25 -19 -25 -47 0 -40 -5 -42 -32 -18 -19
17 -21 17 -50 0 -36 -21 -42 -18 -29 14 7 19 4 29 -17 52 l-26 27 35 0 c31 0
38 5 53 38 l18 37 15 -37 c13 -31 20 -38 43 -38z"/>
<path d="M4405 1930 c-54 -17 -55 -20 -55 -324 0 -155 4 -287 8 -294 12 -18
186 -27 239 -13 140 38 180 212 70 306 l-39 34 20 33 c55 93 26 195 -72 245
-36 19 -131 26 -171 13z m162 -31 c63 -30 88 -71 88 -141 -1 -49 -5 -62 -30
-88 l-29 -30 42 -36 c54 -46 72 -81 72 -141 0 -104 -66 -153 -210 -153 -47 0
-95 3 -108 6 l-22 6 2 286 3 286 25 13 c39 20 118 16 167 -8z"/>
<path d="M4443 1833 c-4 -10 -8 -52 -8 -93 0 -73 1 -75 25 -78 33 -4 92 36
100 68 12 45 -7 90 -45 106 -45 19 -63 18 -72 -3z m90 -34 c9 -12 17 -30 17
-41 0 -26 -53 -78 -79 -78 -19 0 -21 6 -21 76 l0 77 33 -7 c17 -3 40 -16 50
-27z"/>
<path d="M4447 1563 c-4 -3 -7 -48 -7 -99 l0 -93 36 -7 c89 -17 164 28 164 99
0 49 -13 73 -50 92 -29 15 -131 21 -143 8z m115 -14 c66 -18 87 -100 37 -145
-13 -11 -41 -19 -79 -22 l-60 -4 0 85 c0 59 4 87 13 90 20 9 50 7 89 -4z"/>
<path d="M3896 1818 c-50 -164 -146 -502 -146 -516 0 -8 20 -12 59 -12 l60 0
26 88 c50 166 39 152 116 152 l67 0 28 -117 29 -118 63 -3 c57 -3 63 -1 58 15
-9 30 -95 391 -117 488 -10 50 -21 100 -24 113 -5 21 -10 22 -95 22 l-89 0
-35 -112z m220 -8 c12 -58 45 -194 72 -303 l50 -198 -46 3 -46 3 -29 118 -29
117 -73 0 c-46 0 -76 -5 -82 -12 -6 -7 -25 -61 -43 -120 l-34 -108 -43 0 c-38
0 -44 3 -39 18 3 9 26 91 51 182 48 170 101 347 116 388 8 21 14 23 81 20 l72
-3 22 -105z"/>
<path d="M3986 1778 c-13 -42 -35 -162 -31 -167 8 -7 112 -7 120 0 3 4 -3 44
-12 90 -17 79 -20 84 -46 87 -16 2 -29 -2 -31 -10z m57 -50 c4 -24 9 -58 13
-75 l7 -33 -48 0 c-44 0 -47 2 -42 23 3 12 9 43 12 70 7 43 28 72 46 61 3 -2
9 -23 12 -46z"/>
<path d="M4982 1919 c-54 -16 -136 -104 -161 -174 -31 -82 -38 -205 -17 -277
31 -107 118 -178 216 -178 92 1 146 57 157 166 l6 54 -52 0 c-42 0 -51 -3 -51
-18 0 -10 -7 -28 -16 -40 -18 -26 -69 -30 -101 -7 -24 17 -53 99 -53 150 0 60
28 132 65 164 47 41 83 41 98 1 12 -32 37 -44 78 -38 21 3 24 9 27 53 5 66
-18 109 -73 135 -45 22 -71 24 -123 9z m118 -27 c40 -21 70 -72 70 -119 0 -31
-2 -33 -36 -33 -30 0 -37 4 -45 29 -20 58 -101 44 -153 -27 -27 -39 -31 -53
-35 -124 -4 -99 10 -148 51 -183 24 -21 39 -25 72 -23 37 3 43 7 61 46 17 37
23 42 53 42 l34 0 -7 -42 c-17 -101 -63 -148 -148 -148 -56 0 -90 16 -133 62
-52 54 -67 95 -72 188 -3 69 0 97 18 150 32 96 72 145 145 180 50 25 81 25
125 2z"/>
<path d="M1625 1800 c-21 -40 -19 -82 6 -113 17 -23 19 -32 10 -63 -12 -43 -1
-77 36 -116 23 -24 25 -31 15 -53 -22 -47 -15 -84 22 -121 20 -20 44 -34 58
-33 22 0 22 1 3 12 -70 43 -91 93 -60 147 19 34 19 35 -11 48 -14 7 -32 28
-40 47 -13 31 -12 39 1 71 15 35 14 37 -10 60 -29 27 -34 79 -10 110 17 22 19
34 5 34 -5 0 -16 -13 -25 -30z"/>
<path d="M2982 1295 c-53 -16 -107 -57 -127 -96 -13 -24 -19 -28 -35 -19 -24
13 -101 13 -137 -1 -35 -13 -90 -64 -110 -103 -27 -52 -33 -87 -22 -134 8 -36
7 -48 -5 -61 -46 -51 -58 -140 -27 -206 36 -80 118 -122 216 -112 48 6 51 5
70 -26 27 -42 112 -87 178 -94 76 -8 157 17 195 61 l30 34 28 -29 c78 -81 254
-54 327 51 23 33 34 40 61 40 49 0 131 46 165 92 17 23 36 66 43 96 23 103
-28 229 -110 271 -25 13 -41 30 -50 54 -16 44 -89 113 -150 139 -63 28 -136
26 -198 -5 l-49 -25 -30 25 c-73 61 -167 78 -263 48z m177 -17 c18 -6 51 -26
73 -46 33 -30 43 -34 56 -24 107 75 238 60 327 -39 18 -20 39 -53 46 -72 8
-23 23 -40 40 -47 38 -16 83 -68 103 -118 56 -145 -31 -298 -181 -318 -45 -6
-55 -11 -72 -40 -48 -81 -182 -119 -267 -76 -21 11 -48 29 -58 41 l-19 21 -37
-38 c-41 -43 -94 -62 -166 -62 -78 1 -174 53 -194 106 -8 20 -14 21 -84 16
-67 -4 -79 -2 -118 21 -97 56 -119 184 -46 264 19 20 19 26 7 71 -11 44 -10
56 5 96 24 62 70 109 130 131 46 18 51 18 95 2 43 -16 47 -16 56 0 66 108 178
149 304 111z"/>
<path d="M3485 1075 c-25 -24 -34 -65 -15 -65 6 0 10 9 10 19 0 18 34 51 52
51 16 0 48 -40 48 -60 0 -10 -20 -39 -45 -63 -37 -37 -45 -51 -45 -81 0 -20 5
-36 10 -36 6 0 10 16 10 35 0 26 7 43 26 60 15 14 30 25 34 25 4 0 13 14 20
30 10 24 10 36 0 60 -22 54 -66 65 -105 25z"/>
<path d="M3340 1030 c0 -43 -3 -52 -22 -60 l-23 -9 22 -6 c19 -6 22 -16 28
-93 4 -48 12 -93 17 -99 17 -21 46 -15 64 12 22 34 8 47 -16 15 -27 -36 -37
-18 -46 78 -6 79 -6 83 15 89 27 7 28 23 1 23 -17 0 -20 7 -20 50 0 28 -4 50
-10 50 -5 0 -10 -23 -10 -50z"/>
<path d="M2945 1048 c-2 -7 -11 -58 -20 -113 -22 -136 -23 -138 -47 -82 -11
26 -25 47 -30 47 -5 0 -17 -19 -27 -42 l-18 -43 -11 40 c-6 22 -18 75 -28 118
-10 42 -21 77 -26 77 -4 0 -8 -2 -8 -3 0 -4 46 -214 55 -254 8 -35 25 -28 42
17 9 22 19 40 22 40 3 0 14 -21 25 -45 10 -25 23 -44 30 -42 6 2 20 51 32 108
32 156 36 189 24 189 -6 0 -12 -6 -15 -12z"/>
<path d="M3010 905 c0 -97 4 -155 10 -155 6 0 10 27 10 60 0 55 2 61 25 72 37
17 55 -6 62 -75 3 -32 10 -57 16 -57 6 0 7 23 3 63 -8 73 -32 102 -78 93 l-28
-5 0 79 c0 47 -4 80 -10 80 -6 0 -10 -58 -10 -155z"/>
<path d="M3208 900 c-27 -16 -41 -74 -28 -114 14 -42 35 -52 68 -30 24 16 26
16 38 0 7 -10 14 -13 17 -9 6 10 -16 133 -27 151 -9 14 -44 15 -68 2z m60 -53
c6 -72 -61 -110 -74 -42 -8 45 17 88 49 83 18 -2 23 -11 25 -41z"/>
<path d="M3492 764 c4 -21 22 -23 26 -1 2 10 -3 17 -13 17 -10 0 -15 -6 -13
-16z"/>
<path d="M2274 1225 c-15 -11 -17 -17 -8 -32 21 -34 63 -25 64 14 0 22 -35 34
-56 18z m36 -26 c0 -5 -7 -9 -15 -9 -15 0 -20 12 -9 23 8 8 24 -1 24 -14z"/>
<path d="M4592 1168 c-17 -17 -15 -42 6 -61 37 -34 76 -11 70 40 -2 23 -8 29
-33 31 -17 2 -36 -3 -43 -10z m58 -13 c10 -12 10 -18 0 -30 -16 -19 -39 -19
-46 0 -6 15 11 45 26 45 4 0 13 -7 20 -15z"/>
<path d="M2369 1134 c-19 -23 1 -49 37 -49 20 0 30 6 32 18 8 40 -43 63 -69
31z m46 -14 c3 -5 4 -14 0 -20 -8 -13 -35 -1 -35 16 0 16 26 19 35 4z"/>
<path d="M4792 1128 c-25 -25 -7 -68 28 -68 9 0 25 9 34 19 34 38 -26 85 -62
49z m53 -28 c0 -8 -10 -16 -22 -18 -22 -3 -32 16 -16 32 12 11 38 2 38 -14z"/>
<path d="M2257 1113 c-12 -12 -7 -41 7 -46 22 -9 41 19 26 38 -14 16 -23 19
-33 8z m23 -23 c0 -5 -4 -10 -10 -10 -5 0 -10 5 -10 10 0 6 5 10 10 10 6 0 10
-4 10 -10z"/>
<path d="M1805 1078 c-67 -24 -104 -66 -126 -141 -21 -73 44 -127 112 -93 21
11 29 12 26 3 -35 -94 -8 -70 51 46 66 130 68 164 9 186 -33 13 -33 13 -72 -1z
m83 -30 c19 -19 14 -47 -14 -95 -27 -46 -95 -103 -124 -103 -9 0 -25 9 -35 20
-22 25 -16 86 14 128 36 51 129 80 159 50z"/>
<path d="M4265 1037 c-11 -38 -28 -65 -58 -94 -36 -35 -50 -41 -95 -45 -57 -5
-92 -29 -92 -61 0 -10 10 -36 21 -57 l22 -39 -40 -48 c-49 -60 -77 -102 -71
-108 3 -3 39 22 81 55 76 61 76 61 106 46 44 -23 78 -20 96 8 21 32 30 89 17
113 -10 17 -4 28 39 77 33 36 58 56 73 56 28 0 66 27 66 47 0 9 -20 36 -45 60
-33 31 -54 43 -75 43 -27 0 -31 -4 -45 -53z m84 16 c57 -43 76 -73 46 -73 -17
0 -95 72 -95 88 0 18 9 15 49 -15z m-16 -48 c47 -45 48 -61 2 -49 -30 7 -55
39 -55 71 0 13 1 23 3 23 2 0 24 -20 50 -45z m-34 -46 l24 -20 -49 -51 c-27
-29 -54 -58 -61 -65 -16 -18 -27 -16 -47 6 -16 18 -14 22 39 85 31 36 59 66
63 66 4 -1 18 -10 31 -21z m-156 -102 c-3 -15 4 -30 22 -47 22 -21 29 -22 45
-12 28 17 30 16 30 -26 0 -46 -24 -82 -54 -82 -32 0 -100 52 -133 101 l-27 41
27 24 c18 15 41 24 61 24 29 0 33 -3 29 -23z m-53 -139 c0 -7 -17 -27 -38 -44
-63 -51 -68 -50 -23 4 44 52 61 63 61 40z"/>
<path d="M4660 985 c-10 -12 -10 -18 0 -30 7 -8 18 -15 25 -15 7 0 18 7 25 15
10 12 10 18 0 30 -7 8 -18 15 -25 15 -7 0 -18 -7 -25 -15z m40 -15 c0 -5 -7
-10 -15 -10 -8 0 -15 5 -15 10 0 6 7 10 15 10 8 0 15 -4 15 -10z"/>
<path d="M1993 982 c-16 -10 -133 -203 -133 -219 0 -28 17 -10 55 59 49 88 92
148 105 148 5 0 18 -17 27 -37 15 -32 24 -39 52 -41 42 -4 81 5 81 19 0 7 -12
9 -34 5 -45 -9 -61 -1 -85 40 -20 33 -43 42 -68 26z"/>
<path d="M2175 874 c-43 -22 -64 -44 -86 -86 -27 -53 -25 -100 6 -131 27 -26
103 -51 129 -41 22 9 9 24 -20 24 -14 0 -43 9 -64 20 -45 23 -58 55 -40 99 11
29 12 29 46 15 82 -34 164 -4 164 61 0 24 -6 38 -19 45 -28 15 -82 12 -116 -6z
m109 -26 c24 -39 -32 -76 -95 -64 -53 10 -66 21 -48 42 35 42 122 55 143 22z"/>
</g>
</svg>
